<svg width="54" height="54" viewBox="0 0 54 54" fill="none" xmlns="http://www.w3.org/2000/svg">
<circle cx="27" cy="27" r="23" stroke="#4174CE" stroke-opacity="0.2" stroke-width="7"/>
<g clip-path="url(#clip0)">
<path d="M20.3506 15.0707L20.3348 15L20.272 15.0157L20.3506 15.0707Z" fill="url(#paint0_linear)"/>
<path d="M21.8438 36.8779L20.0835 37.2316L20.4371 38.9997L22.1974 38.6461L21.8438 36.8779Z" fill="url(#paint1_linear)"/>
<path d="M28.17 34.5761L35.9579 33.0123L35.6042 31.252L27.8164 32.8079L28.17 34.5761Z" fill="url(#paint2_linear)"/>
<path d="M25.05 33.3654L25.4037 35.1257L27.1719 34.772L26.8182 33.0117L25.05 33.3654Z" fill="url(#paint3_linear)"/>
<path d="M24.9636 38.0884L24.61 36.3281L22.8418 36.6818L23.1954 38.4421L24.9636 38.0884Z" fill="url(#paint4_linear)"/>
<path d="M19.8793 36.2341L21.6474 35.8804L21.2938 34.1201L19.5256 34.4738L19.8793 36.2341Z" fill="url(#paint5_linear)"/>
<path d="M36.1543 34.0098L28.3665 35.5736L28.7201 37.3339L36.5079 35.7779L36.1543 34.0098Z" fill="url(#paint6_linear)"/>
<path d="M25.6082 36.1241L25.9618 37.8923L27.7221 37.5387L27.3685 35.7705L25.6082 36.1241Z" fill="url(#paint7_linear)"/>
<path d="M22.6454 35.6833L24.4057 35.3297L24.0521 33.5615L22.2917 33.9152L22.6454 35.6833Z" fill="url(#paint8_linear)"/>
<path d="M19.3291 33.4752L20.0756 33.3259L17.2466 19.2041L16.5 19.3534L19.3291 33.4752Z" fill="url(#paint9_linear)"/>
<path d="M20.3508 33.2713L21.0973 33.122L18.0639 17.9629L17.3174 18.1122L20.3508 33.2713Z" fill="url(#paint10_linear)"/>
<path d="M22.1031 32.9178L22.8497 32.7684L19.3762 15.4561L18.6296 15.6054L22.1031 32.9178Z" fill="url(#paint11_linear)"/>
<path d="M23.1249 32.7132L23.8714 32.5639L20.6887 16.666L19.9421 16.8153L23.1249 32.7132Z" fill="url(#paint12_linear)"/>
<path d="M24.8534 32.3672L25.6 32.2179L22.9909 19.1963L22.2444 19.3456L24.8534 32.3672Z" fill="url(#paint13_linear)"/>
<path d="M25.8755 32.1631L26.622 32.0138L23.9187 18.4971L23.1721 18.6464L25.8755 32.1631Z" fill="url(#paint14_linear)"/>
</g>
<defs>
<linearGradient id="paint0_linear" x1="26.0087" y1="43.4884" x2="20.6089" y2="16.5304" gradientUnits="userSpaceOnUse">
<stop stop-color="#F9EC1C"/>
<stop offset="1" stop-color="#F05A2B"/>
</linearGradient>
<linearGradient id="paint1_linear" x1="22.243" y1="43.4437" x2="16.8431" y2="16.4858" gradientUnits="userSpaceOnUse">
<stop stop-color="#F9EC1C"/>
<stop offset="1" stop-color="#F05A2B"/>
</linearGradient>
<linearGradient id="paint2_linear" x1="33.5415" y1="41.1813" x2="28.1417" y2="14.2234" gradientUnits="userSpaceOnUse">
<stop stop-color="#F9EC1C"/>
<stop offset="1" stop-color="#F05A2B"/>
</linearGradient>
<linearGradient id="paint3_linear" x1="27.7677" y1="42.3373" x2="22.3679" y2="15.3793" gradientUnits="userSpaceOnUse">
<stop stop-color="#F9EC1C"/>
<stop offset="1" stop-color="#F05A2B"/>
</linearGradient>
<linearGradient id="paint4_linear" x1="25.0053" y1="42.8907" x2="19.6055" y2="15.9327" gradientUnits="userSpaceOnUse">
<stop stop-color="#F9EC1C"/>
<stop offset="1" stop-color="#F05A2B"/>
</linearGradient>
<linearGradient id="paint5_linear" x1="22.2431" y1="43.4444" x2="16.8432" y2="16.4862" gradientUnits="userSpaceOnUse">
<stop stop-color="#F9EC1C"/>
<stop offset="1" stop-color="#F05A2B"/>
</linearGradient>
<linearGradient id="paint6_linear" x1="33.5415" y1="41.1808" x2="28.1417" y2="14.2229" gradientUnits="userSpaceOnUse">
<stop stop-color="#F9EC1C"/>
<stop offset="1" stop-color="#F05A2B"/>
</linearGradient>
<linearGradient id="paint7_linear" x1="27.7679" y1="42.3377" x2="22.368" y2="15.3798" gradientUnits="userSpaceOnUse">
<stop stop-color="#F9EC1C"/>
<stop offset="1" stop-color="#F05A2B"/>
</linearGradient>
<linearGradient id="paint8_linear" x1="25.0054" y1="42.8903" x2="19.6055" y2="15.9324" gradientUnits="userSpaceOnUse">
<stop stop-color="#F9EC1C"/>
<stop offset="1" stop-color="#F05A2B"/>
</linearGradient>
<linearGradient id="paint9_linear" x1="21.6285" y1="43.0223" x2="16.5072" y2="17.4549" gradientUnits="userSpaceOnUse">
<stop stop-color="#F9EC1C"/>
<stop offset="1" stop-color="#F05A2B"/>
</linearGradient>
<linearGradient id="paint10_linear" x1="22.7952" y1="43.5265" x2="17.2967" y2="16.0761" gradientUnits="userSpaceOnUse">
<stop stop-color="#F9EC1C"/>
<stop offset="1" stop-color="#F05A2B"/>
</linearGradient>
<linearGradient id="paint11_linear" x1="24.8386" y1="44.6455" x2="18.5584" y2="13.2928" gradientUnits="userSpaceOnUse">
<stop stop-color="#F9EC1C"/>
<stop offset="1" stop-color="#F05A2B"/>
</linearGradient>
<linearGradient id="paint12_linear" x1="25.6693" y1="43.4721" x2="19.9041" y2="14.6901" gradientUnits="userSpaceOnUse">
<stop stop-color="#F9EC1C"/>
<stop offset="1" stop-color="#F05A2B"/>
</linearGradient>
<linearGradient id="paint13_linear" x1="27.0031" y1="41.164" x2="22.2816" y2="17.5927" gradientUnits="userSpaceOnUse">
<stop stop-color="#F9EC1C"/>
<stop offset="1" stop-color="#F05A2B"/>
</linearGradient>
<linearGradient id="paint14_linear" x1="28.0961" y1="41.299" x2="23.1937" y2="16.8246" gradientUnits="userSpaceOnUse">
<stop stop-color="#F9EC1C"/>
<stop offset="1" stop-color="#F05A2B"/>
</linearGradient>
<clipPath id="clip0">
<rect width="24" height="24" fill="white" transform="translate(15 15)"/>
</clipPath>
</defs>
</svg>
