<svg width="54" height="54" viewBox="0 0 54 54" fill="none" xmlns="http://www.w3.org/2000/svg">
<circle cx="27" cy="27" r="23" stroke="#4174CE" stroke-opacity="0.2" stroke-width="7"/>
<path d="M36.45 35.4H35.4V19.65C35.4 19.3715 35.2894 19.1045 35.0925 18.9075C34.8955 18.7106 34.6285 18.6 34.35 18.6C34.0715 18.6 33.8044 18.7106 33.6075 18.9075C33.4106 19.1045 33.3 19.3715 33.3 19.65V35.4H31.2V28.05C31.2 27.7715 31.0894 27.5045 30.8925 27.3075C30.6955 27.1106 30.4285 27 30.15 27C29.8715 27 29.6045 27.1106 29.4075 27.3075C29.2106 27.5045 29.1 27.7715 29.1 28.05V35.4H27V23.85C27 23.5715 26.8894 23.3045 26.6925 23.1075C26.4955 22.9106 26.2285 22.8 25.95 22.8C25.6715 22.8 25.4045 22.9106 25.2075 23.1075C25.0106 23.3045 24.9 23.5715 24.9 23.85V35.4H22.8V32.25C22.8 31.9715 22.6894 31.7044 22.4925 31.5075C22.2955 31.3106 22.0285 31.2 21.75 31.2C21.4715 31.2 21.2045 31.3106 21.0075 31.5075C20.8106 31.7044 20.7 31.9715 20.7 32.25V35.4H18.6V17.55C18.6 17.2715 18.4894 17.0045 18.2925 16.8075C18.0955 16.6106 17.8285 16.5 17.55 16.5C17.2715 16.5 17.0045 16.6106 16.8075 16.8075C16.6106 17.0045 16.5 17.2715 16.5 17.55V36.45C16.5 36.7285 16.6106 36.9955 16.8075 37.1925C17.0045 37.3894 17.2715 37.5 17.55 37.5H36.45C36.7285 37.5 36.9955 37.3894 37.1925 37.1925C37.3894 36.9955 37.5 36.7285 37.5 36.45C37.5 36.1715 37.3894 35.9044 37.1925 35.7075C36.9955 35.5106 36.7285 35.4 36.45 35.4Z" fill="#9FA7B3"/>
</svg>
