<svg width="54" height="54" viewBox="0 0 54 54" fill="none" xmlns="http://www.w3.org/2000/svg">
<circle cx="27" cy="27" r="23" stroke="#4174CE" stroke-opacity="0.2" stroke-width="7"/>
<path d="M37.4728 19.3771C37.3273 19.2304 37.1541 19.1139 36.9634 19.0344C36.7727 18.955 36.5681 18.9141 36.3614 18.9141C36.1548 18.9141 35.9502 18.955 35.7594 19.0344C35.5687 19.1139 35.3956 19.2304 35.25 19.3771L23.5885 31.0543L18.689 26.1392C18.5379 25.9933 18.3596 25.8785 18.1642 25.8015C17.9687 25.7245 17.76 25.6867 17.55 25.6903C17.34 25.694 17.1327 25.739 16.94 25.8227C16.7474 25.9064 16.5731 26.0273 16.4272 26.1784C16.2812 26.3295 16.1664 26.5078 16.0894 26.7032C16.0124 26.8987 15.9746 27.1074 15.9783 27.3174C15.9819 27.5274 16.0269 27.7347 16.1106 27.9274C16.1943 28.12 16.3152 28.2943 16.4663 28.4402L22.4771 34.451C22.6226 34.5978 22.7957 34.7142 22.9865 34.7937C23.1772 34.8731 23.3818 34.9141 23.5885 34.9141C23.7951 34.9141 23.9997 34.8731 24.1904 34.7937C24.3812 34.7142 24.5543 34.5978 24.6998 34.451L37.4728 21.6781C37.6317 21.5315 37.7585 21.3536 37.8452 21.1556C37.9319 20.9576 37.9767 20.7438 37.9767 20.5276C37.9767 20.3114 37.9319 20.0976 37.8452 19.8996C37.7585 19.7016 37.6317 19.5237 37.4728 19.3771Z" fill="#9FA7B3"/>
</svg>
