<svg width="42" height="42" viewBox="0 0 42 42" fill="none" xmlns="http://www.w3.org/2000/svg">
<path d="M39.9 37.8H37.8V6.3C37.8 5.74304 37.5788 5.2089 37.1849 4.81508C36.7911 4.42125 36.257 4.2 35.7 4.2C35.143 4.2 34.6089 4.42125 34.2151 4.81508C33.8212 5.2089 33.6 5.74304 33.6 6.3V37.8H29.4V23.1C29.4 22.543 29.1787 22.0089 28.7849 21.6151C28.3911 21.2212 27.857 21 27.3 21C26.743 21 26.2089 21.2212 25.8151 21.6151C25.4212 22.0089 25.2 22.543 25.2 23.1V37.8H21V14.7C21 14.143 20.7787 13.6089 20.3849 13.2151C19.9911 12.8212 19.457 12.6 18.9 12.6C18.343 12.6 17.8089 12.8212 17.4151 13.2151C17.0212 13.6089 16.8 14.143 16.8 14.7V37.8H12.6V31.5C12.6 30.943 12.3787 30.4089 11.9849 30.0151C11.5911 29.6212 11.057 29.4 10.5 29.4C9.94304 29.4 9.4089 29.6212 9.01508 30.0151C8.62125 30.4089 8.4 30.943 8.4 31.5V37.8H4.2V2.1C4.2 1.54305 3.97875 1.0089 3.58492 0.615076C3.1911 0.221249 2.65695 0 2.1 0C1.54305 0 1.0089 0.221249 0.615076 0.615076C0.221249 1.0089 0 1.54305 0 2.1V39.9C0 40.457 0.221249 40.9911 0.615076 41.3849C1.0089 41.7788 1.54305 42 2.1 42H39.9C40.457 42 40.9911 41.7788 41.3849 41.3849C41.7788 40.9911 42 40.457 42 39.9C42 39.343 41.7788 38.8089 41.3849 38.4151C40.9911 38.0212 40.457 37.8 39.9 37.8Z" fill="url(#paint0_linear)"/>
<defs>
<linearGradient id="paint0_linear" x1="21" y1="8.3125" x2="21" y2="42" gradientUnits="userSpaceOnUse">
<stop stop-color="#B445BC"/>
<stop offset="1" stop-color="#D65CD6"/>
</linearGradient>
</defs>
</svg>
