<svg width="36" height="45" viewBox="0 0 36 45" fill="none" xmlns="http://www.w3.org/2000/svg">
<path d="M31.5 25.155V18C31.4968 14.812 30.3654 11.7281 28.3064 9.29424C26.2473 6.86043 23.3934 5.23383 20.25 4.7025V2.25C20.25 1.65326 20.0129 1.08097 19.591 0.65901C19.169 0.237053 18.5967 0 18 0C17.4033 0 16.831 0.237053 16.409 0.65901C15.9871 1.08097 15.75 1.65326 15.75 2.25V4.7025C12.6066 5.23383 9.75268 6.86043 7.69362 9.29424C5.63455 11.7281 4.50323 14.812 4.5 18V25.155C3.18701 25.6192 2.04975 26.4782 1.24411 27.6141C0.438477 28.75 0.0039139 30.1074 0 31.5V36C0 36.5967 0.237053 37.169 0.65901 37.591C1.08097 38.0129 1.65326 38.25 2.25 38.25H9.315C9.83314 40.1566 10.9643 41.8397 12.5338 43.0397C14.1034 44.2396 16.0243 44.8898 18 44.8898C19.9757 44.8898 21.8966 44.2396 23.4662 43.0397C25.0357 41.8397 26.1669 40.1566 26.685 38.25H33.75C34.3467 38.25 34.919 38.0129 35.341 37.591C35.7629 37.169 36 36.5967 36 36V31.5C35.9961 30.1074 35.5615 28.75 34.7559 27.6141C33.9503 26.4782 32.813 25.6192 31.5 25.155ZM9 18C9 15.6131 9.94821 13.3239 11.636 11.636C13.3239 9.94821 15.6131 9 18 9C20.3869 9 22.6761 9.94821 24.364 11.636C26.0518 13.3239 27 15.6131 27 18V24.75H9V18ZM18 40.5C17.2147 40.4953 16.4443 40.2851 15.7654 39.8904C15.0865 39.4956 14.5226 38.9301 14.13 38.25H21.87C21.4774 38.9301 20.9135 39.4956 20.2346 39.8904C19.5557 40.2851 18.7853 40.4953 18 40.5ZM31.5 33.75H4.5V31.5C4.5 30.9033 4.73705 30.331 5.15901 29.909C5.58097 29.4871 6.15326 29.25 6.75 29.25H29.25C29.8467 29.25 30.419 29.4871 30.841 29.909C31.2629 30.331 31.5 30.9033 31.5 31.5V33.75Z" fill="url(#paint0_linear)"/>
<defs>
<linearGradient id="paint0_linear" x1="18" y1="11.69" x2="18" y2="44.8898" gradientUnits="userSpaceOnUse">
<stop stop-color="#B445BC"/>
<stop offset="1" stop-color="#D65CD6"/>
</linearGradient>
</defs>
</svg>
