<svg width="24" height="24" viewBox="0 0 24 24" fill="none" xmlns="http://www.w3.org/2000/svg">
<g clip-path="url(#clip0)">
<path d="M0.0374756 11.9251C0.0374756 11.3251 0.412476 10.8376 0.974976 10.6501C1.16248 10.5751 1.34998 10.5001 1.49998 10.4251C1.83748 10.2001 2.02498 9.86257 2.02498 9.41257V5.70007C2.02498 4.95007 2.17498 4.38757 2.43748 4.01257C2.69998 3.63757 3.14998 3.37507 3.71248 3.18757C4.04998 3.07507 4.46248 3.03757 4.94998 3.00007C5.62498 2.92507 6.18748 3.45007 6.18748 4.12507V4.16257C6.18748 4.68757 5.81248 5.13757 5.28748 5.28757C5.24998 5.28757 5.24998 5.28757 5.21248 5.32507C5.02498 5.40007 4.91248 5.47507 4.79998 5.58757C4.68748 5.70007 4.64998 5.85007 4.64998 6.07507V9.93757C4.64998 10.5376 4.49998 11.0251 4.19998 11.3251C3.89998 11.6626 3.41248 11.8501 2.69998 11.9626V12.0751C3.37498 12.1876 3.89998 12.4126 4.19998 12.7126C4.49998 13.0126 4.64998 13.4626 4.64998 14.0626V17.9626C4.64998 18.1876 4.72498 18.3376 4.83748 18.4501C4.94998 18.5626 5.09998 18.6376 5.28748 18.7126H5.32498C5.84998 18.8626 6.18748 19.3126 6.18748 19.8376C6.18748 20.5126 5.58748 21.0751 4.91248 21.0001C4.42498 20.9626 4.04998 20.8876 3.71248 20.7751C3.11248 20.5876 2.69998 20.3251 2.43748 19.9501C2.17498 19.5751 2.06248 19.0126 2.06248 18.2626V14.5876C2.06248 14.1751 1.87498 13.8376 1.53748 13.5751C1.38748 13.4626 1.23748 13.3876 1.04998 13.3501C0.487476 13.1626 0.112476 12.6751 0.112476 12.0751V11.9251H0.0374756Z" fill="url(#paint0_linear)"/>
<path d="M24 12.0751C24 12.6751 23.625 13.1626 23.0625 13.3501C22.875 13.4251 22.725 13.5001 22.575 13.5751C22.2 13.8001 22.05 14.1376 22.05 14.5876V18.2626C22.05 19.0126 21.9 19.5751 21.6375 19.9501C21.375 20.3251 20.9625 20.5876 20.3625 20.7751C20.025 20.8876 19.65 20.9251 19.1625 21.0001C18.4875 21.0751 17.8875 20.5126 17.8875 19.8376C17.8875 19.3126 18.2625 18.8251 18.7875 18.7126C18.9375 18.6751 19.0125 18.6376 19.125 18.6001C19.35 18.4501 19.4625 18.2626 19.4625 17.9626V14.0251C19.4625 13.4251 19.6125 12.9751 19.9125 12.6751C20.2125 12.3751 20.7 12.1501 21.4125 12.0376V11.9251C20.7375 11.8126 20.25 11.6251 19.9125 11.2876C19.6125 10.9501 19.4625 10.5001 19.4625 9.90008V6.07508C19.4625 5.85008 19.425 5.70008 19.3125 5.58758C19.2 5.47508 19.0875 5.40008 18.9 5.32508C18.8625 5.32508 18.8625 5.32508 18.825 5.28758C18.3 5.13758 17.925 4.68758 17.925 4.16258V4.12508C17.925 3.45008 18.525 2.92508 19.1625 2.96258C19.65 3.00008 20.0625 3.07508 20.3625 3.15008C20.9625 3.33758 21.375 3.60008 21.6375 3.97508C21.9 4.35008 22.05 4.91258 22.05 5.66258V9.37508C22.05 9.82508 22.2375 10.1626 22.575 10.3876C22.725 10.5001 22.875 10.5751 23.0625 10.6126C23.625 10.8001 24.0375 11.2876 24.0375 11.8876V12.0751H24Z" fill="url(#paint1_linear)"/>
<path d="M16.0874 20.8125H13.6499C13.0124 20.8125 12.4874 20.2875 12.4874 19.65C12.4874 19.0125 13.0124 18.4875 13.6499 18.4875H14.9249V5.5125H13.9499C13.3124 5.5125 12.7874 4.9875 12.7874 4.35C12.7874 3.7125 13.3124 3.1875 13.9499 3.1875H16.0874C16.7249 3.1875 17.2499 3.7125 17.2499 4.35V19.6875C17.2499 20.2875 16.7249 20.8125 16.0874 20.8125Z" fill="url(#paint2_linear)"/>
<path d="M7.65009 3.1875H10.1251C10.7626 3.1875 11.2876 3.7125 11.2876 4.35C11.2876 4.9875 10.7626 5.5125 10.1251 5.5125H8.85009V18.4875H9.82508C10.4626 18.4875 10.9876 19.0125 10.9876 19.65C10.9876 20.2875 10.4626 20.8125 9.82508 20.8125H7.68759C7.05009 20.8125 6.52509 20.2875 6.52509 19.65V4.35C6.48759 3.7125 7.01259 3.1875 7.65009 3.1875Z" fill="url(#paint3_linear)"/>
</g>
<defs>
<linearGradient id="paint0_linear" x1="6.18748" y1="11.8613" x2="0.0374763" y2="11.8613" gradientUnits="userSpaceOnUse">
<stop stop-color="#F55F3E"/>
<stop offset="1" stop-color="#FF8833"/>
</linearGradient>
<linearGradient id="paint1_linear" x1="24.0375" y1="11.8449" x2="17.8875" y2="11.8449" gradientUnits="userSpaceOnUse">
<stop stop-color="#F55F3E"/>
<stop offset="1" stop-color="#FF8833"/>
</linearGradient>
<linearGradient id="paint2_linear" x1="17.2499" y1="11.8644" x2="12.4874" y2="11.8644" gradientUnits="userSpaceOnUse">
<stop stop-color="#F55F3E"/>
<stop offset="1" stop-color="#FF8833"/>
</linearGradient>
<linearGradient id="paint3_linear" x1="11.2876" y1="11.8644" x2="6.52319" y2="11.8644" gradientUnits="userSpaceOnUse">
<stop stop-color="#F55F3E"/>
<stop offset="1" stop-color="#FF8833"/>
</linearGradient>
<clipPath id="clip0">
<rect width="24" height="24" fill="white"/>
</clipPath>
</defs>
</svg>
