<svg width="40" height="40" viewBox="0 0 40 40" fill="none" xmlns="http://www.w3.org/2000/svg">
<path d="M16.42 25.5C16.6059 25.6875 16.8271 25.8362 17.0708 25.9378C17.3146 26.0393 17.576 26.0916 17.84 26.0916C18.104 26.0916 18.3654 26.0393 18.6092 25.9378C18.8529 25.8362 19.0741 25.6875 19.26 25.5L27.42 17.34C27.7966 16.9634 28.0082 16.4526 28.0082 15.92C28.0082 15.3874 27.7966 14.8766 27.42 14.5C27.0434 14.1234 26.5326 13.9118 26 13.9118C25.4674 13.9118 24.9566 14.1234 24.58 14.5L17.84 21.26L15.42 18.82C15.0434 18.4434 14.5326 18.2318 14 18.2318C13.4674 18.2318 12.9566 18.4434 12.58 18.82C12.2034 19.1966 11.9918 19.7074 11.9918 20.24C11.9918 20.7726 12.2034 21.2834 12.58 21.66L16.42 25.5ZM38 0H2C1.46957 0 0.960859 0.210714 0.585786 0.585786C0.210714 0.960859 0 1.46957 0 2V38C0 38.5304 0.210714 39.0391 0.585786 39.4142C0.960859 39.7893 1.46957 40 2 40H38C38.5304 40 39.0391 39.7893 39.4142 39.4142C39.7893 39.0391 40 38.5304 40 38V2C40 1.46957 39.7893 0.960859 39.4142 0.585786C39.0391 0.210714 38.5304 0 38 0ZM36 36H4V4H36V36Z" fill="url(#paint0_linear)"/>
<defs>
<linearGradient id="paint0_linear" x1="20" y1="10.4167" x2="20" y2="40" gradientUnits="userSpaceOnUse">
<stop stop-color="#FF8833"/>
<stop offset="1" stop-color="#F55F3E"/>
</linearGradient>
</defs>
</svg>
