<svg width="40" height="40" viewBox="0 0 40 40" fill="none" xmlns="http://www.w3.org/2000/svg">
<path d="M16.4201 25.5C16.606 25.6875 16.8272 25.8362 17.071 25.9378C17.3147 26.0393 17.5761 26.0916 17.8401 26.0916C18.1041 26.0916 18.3656 26.0393 18.6093 25.9378C18.853 25.8362 19.0742 25.6875 19.2601 25.5L27.4201 17.34C27.7967 16.9634 28.0083 16.4526 28.0083 15.92C28.0083 15.3874 27.7967 14.8766 27.4201 14.5C27.0435 14.1234 26.5327 13.9118 26.0001 13.9118C25.4675 13.9118 24.9567 14.1234 24.5801 14.5L17.8401 21.26L15.4201 18.82C15.0435 18.4434 14.5327 18.2318 14.0001 18.2318C13.4675 18.2318 12.9567 18.4434 12.5801 18.82C12.2035 19.1966 11.9919 19.7074 11.9919 20.24C11.9919 20.7726 12.2035 21.2834 12.5801 21.66L16.4201 25.5ZM38.0001 0H2.00012C1.46969 0 0.960981 0.210714 0.585908 0.585786C0.210836 0.960859 0.00012207 1.46957 0.00012207 2V38C0.00012207 38.5304 0.210836 39.0391 0.585908 39.4142C0.960981 39.7893 1.46969 40 2.00012 40H38.0001C38.5306 40 39.0393 39.7893 39.4143 39.4142C39.7894 39.0391 40.0001 38.5304 40.0001 38V2C40.0001 1.46957 39.7894 0.960859 39.4143 0.585786C39.0393 0.210714 38.5306 0 38.0001 0ZM36.0001 36H4.00012V4H36.0001V36Z" fill="url(#paint0_linear)"/>
<defs>
<linearGradient id="paint0_linear" x1="20.0001" y1="0" x2="20.0001" y2="40" gradientUnits="userSpaceOnUse">
<stop stop-color="#9933CC"/>
<stop offset="1" stop-color="#D65CA5"/>
</linearGradient>
</defs>
</svg>
