<svg width="54" height="54" viewBox="0 0 54 54" fill="none" xmlns="http://www.w3.org/2000/svg">
<circle cx="27" cy="27" r="23" stroke="#4174CE" stroke-opacity="0.2" stroke-width="7"/>
<path d="M33.75 27.5775V24C33.7484 22.406 33.1827 20.864 32.1532 19.6471C31.1237 18.4302 29.6967 17.6169 28.125 17.3513V16.125C28.125 15.8266 28.0065 15.5405 27.7955 15.3295C27.5845 15.1185 27.2984 15 27 15C26.7016 15 26.4155 15.1185 26.2045 15.3295C25.9935 15.5405 25.875 15.8266 25.875 16.125V17.3513C24.3033 17.6169 22.8763 18.4302 21.8468 19.6471C20.8173 20.864 20.2516 22.406 20.25 24V27.5775C19.5935 27.8096 19.0249 28.2391 18.6221 28.8071C18.2192 29.375 18.002 30.0537 18 30.75V33C18 33.2984 18.1185 33.5845 18.3295 33.7955C18.5405 34.0065 18.8266 34.125 19.125 34.125H22.6575C22.9166 35.0783 23.4821 35.9198 24.2669 36.5198C25.0517 37.1198 26.0121 37.4449 27 37.4449C27.9879 37.4449 28.9483 37.1198 29.7331 36.5198C30.5179 35.9198 31.0834 35.0783 31.3425 34.125H34.875C35.1734 34.125 35.4595 34.0065 35.6705 33.7955C35.8815 33.5845 36 33.2984 36 33V30.75C35.998 30.0537 35.7808 29.375 35.3779 28.8071C34.9751 28.2391 34.4065 27.8096 33.75 27.5775ZM22.5 24C22.5 22.8065 22.9741 21.6619 23.818 20.818C24.6619 19.9741 25.8065 19.5 27 19.5C28.1935 19.5 29.3381 19.9741 30.182 20.818C31.0259 21.6619 31.5 22.8065 31.5 24V27.375H22.5V24ZM27 35.25C26.6073 35.2476 26.2221 35.1425 25.8827 34.9452C25.5432 34.7478 25.2613 34.4651 25.065 34.125H28.935C28.7387 34.4651 28.4568 34.7478 28.1173 34.9452C27.7779 35.1425 27.3927 35.2476 27 35.25ZM33.75 31.875H20.25V30.75C20.25 30.4516 20.3685 30.1655 20.5795 29.9545C20.7905 29.7435 21.0766 29.625 21.375 29.625H32.625C32.9234 29.625 33.2095 29.7435 33.4205 29.9545C33.6315 30.1655 33.75 30.4516 33.75 30.75V31.875Z" fill="#9FA7B3"/>
</svg>
