<?xml version="1.0" encoding="UTF-8"?>
<svg id="Layer_1" data-name="Layer 1" xmlns="http://www.w3.org/2000/svg" viewBox="0 0 378.3 423.28">
  <defs>
    <style>
      .cls-1 {
        opacity: .1;
      }

      .cls-2 {
        fill: #f8c218;
      }

      .cls-3 {
        fill: #f9c213;
      }

      .cls-4 {
        fill: #f9a01f;
      }

      .cls-5 {
        fill: #010101;
      }

      .cls-6 {
        fill: #020202;
      }

      .cls-7 {
        fill: #ed6325;
      }

      .cls-8 {
        fill: #fff;
      }

      .cls-9 {
        fill: #231735;
      }

      .cls-10 {
        fill: #381811;
      }

      .cls-11 {
        fill: #1d112f;
      }

      .cls-12 {
        fill: #585ba8;
      }

      .cls-13 {
        fill: #5cba48;
      }

      .cls-14 {
        isolation: isolate;
        opacity: .08;
      }

      .cls-15 {
        opacity: .5;
      }
    </style>
  </defs>
  <g class="cls-14">
    <path class="cls-5" d="m313.41,350.7c0-7.81-53.94-14.15-120.47-14.15-66.53,0-120.47,6.33-120.47,14.15,0,7.81,53.94,14.14,120.47,14.14s120.47-6.33,120.47-14.14Z"/>
  </g>
  <path class="cls-7" d="m139.18,82.07h0S61.95,234.22,58.53,222.72c-3.42-11.5-16.22-7-16.63-13.84-.51-8.43,11.19-6.84,11.81-15.55.61-8.7-15.59-10.31-14.72-17.62,1.3-10.86,19.06-8.49,19.68-16.89.62-8.39-22.38-22.89-20.83-28.9,3.28-12.64,33.27-6.21,36.68-16.16,3.43-9.95-17.71-43.98-12.12-50.2,6.9-7.67,46.12-2.87,76.77,18.5h0Z"/>
  <g>
    <path class="cls-2" d="m2.43,286.18c-.79,23.8,21.98,47.25,58.71,39.78,20.39-4.15,25.8-6.28,34.82-6.44,1.03,0,4.53-.02,5.1.02,2.52.15,4.75.46,6.76.89,2.55.69,5.31,1.76,8.49,3.26,15.19,9.52,5.07,29.38,27.8,29.71,27.9.41,31.46-22.66,49.96-24.02.93.02,1.85.02,2.78.02,15.76,1.36,13.8,25.56,37.62,24.01,25.07-1.63,19.39-26.2,54.38-53.34,11.23-11.18,84.25-98.73,18.03-188.37-50.97-69-204.53-44.76-230.02,29.84-12.58,36.82-17.15,75.61-12.93,105.19,1.58,30.57,3.13,51.54-16.67,56.51-28.91,7.26-33.18-29.66-19.45-33.34,11.05-2.95,10.61,6.33,8.28,13.01-3.16,6.97,5.29,11.26,11.04,1.31,3.6-6.24,4.39-22.8-9.86-27.61-14.26-4.81-33.9,1.44-34.83,29.57h0Z"/>
    <path class="cls-10" d="m208.97,341.53c-3.51-4.93-6.55-9.2-12.23-9.73-.87,0-1.74,0-2.6-.02-7.18.57-11.92,4.85-17.4,9.8-7.38,6.67-15.73,14.22-31.9,14.22-.25,0-.51,0-.76,0-14.86-.21-17.58-8.61-19.98-16.02-1.73-5.36-3.37-10.42-8.95-13.97-2.97-1.4-5.55-2.39-7.89-3.03-2.01-.42-4.08-.69-6.35-.83-.42-.03-3.15-.02-4.18-.02h-.72c-5.82.11-10.04,1.06-18.45,2.96-4.11.93-9.22,2.08-15.93,3.44-18.32,3.73-34.95.25-46.82-9.78C5,310.26-.39,298.43.02,286.1h0c.56-16.68,7.37-24.82,12.99-28.72,6.98-4.84,16.33-5.98,25.03-3.05,5.87,1.98,10.1,6,12.23,11.64,2.64,7,1.47,15.09-1.05,19.46-3.95,6.83-9.39,8.08-12.77,6.34-2.72-1.4-4.68-5.04-2.6-9.75,1.47-4.25,1.57-8.04.27-9.45-1.2-1.3-4.07-.77-5.68-.34-4.68,1.25-6.99,8.67-5.04,16.19,2.16,8.31,9.4,15.96,23.28,12.47,16.65-4.18,16.58-20.7,14.96-51.98l-.1-1.96c-4.33-30.55.42-69.25,13.05-106.2,6.1-17.86,19.77-33.93,39.52-46.47,18.3-11.62,40.87-19.75,65.29-23.53,25.55-3.95,50.83-2.8,73.1,3.34,24.34,6.71,43.82,19.21,56.34,36.16,27.99,37.88,35.03,81.38,20.38,125.79-13.23,40.1-38.4,65.47-38.65,65.72l-.22.2c-15.92,12.35-23.19,24.08-29.03,33.51-6.71,10.83-12.01,19.39-26.67,20.34-.78.05-1.54.08-2.28.08-13.15,0-18.79-7.92-23.37-14.35Zm115.64-107c14.35-43.47,7.73-84.32-19.68-121.42-11.87-16.07-30.45-27.96-53.74-34.38-21.62-5.96-46.2-7.08-71.08-3.22-50.13,7.76-89.77,33.97-100.98,66.79-12.22,35.77-17.02,74.67-12.82,104.07l.13,2.28c1.55,29.94,2.68,51.57-18.6,56.91-17.32,4.35-26.51-5.87-29.12-15.94-3-11.59,1.94-20.32,8.46-22.06,4.71-1.26,8.23-.68,10.46,1.72,3.77,4.06,1.76,11.43.72,14.41l-.08.2c-.75,1.64-.6,3.08.37,3.58,1.14.59,3.87-.11,6.39-4.46,1.63-2.83,2.94-9.46.71-15.35-1.62-4.29-4.74-7.24-9.26-8.77-7.25-2.44-15.01-1.53-20.74,2.44-6.75,4.69-10.53,13.3-10.92,24.92h0c-.36,10.84,4.41,21.27,13.08,28.6,10.72,9.06,25.9,12.16,42.74,8.74,6.66-1.36,11.75-2.5,15.83-3.42,8.46-1.91,13.12-2.96,19.47-3.07h.76c2.56,0,4.04,0,4.5.03,2.52.15,4.84.46,7.1.93l.14.03c2.66.73,5.57,1.84,8.89,3.41l.25.14c7.16,4.49,9.25,10.95,11.1,16.65,2.35,7.27,4.06,12.53,15.46,12.69.23,0,.46,0,.69,0,14.32,0,21.61-6.6,28.67-12.98,5.91-5.34,11.49-10.39,20.39-11.04h.11s.12,0,.12,0c.91.02,1.83.05,2.73.02h.21c7.97.69,11.97,6.32,15.85,11.76,4.78,6.71,9.3,13.03,21.41,12.26,12.18-.79,16.21-7.29,22.88-18.06,6.03-9.73,13.53-21.83,30.06-34.69,6.9-6.91,26.74-31.49,37.37-63.71Z"/>
  </g>
  <path class="cls-7" d="m112.54,65.94c14.36,4.82,20.11,11.18,28.55,2.85,10.51-10.39-9.73-54.72,6.36-64.65,14.4-8.89,67.87,17.36,88.59,68.96,6.18,15.41-4.82,21.5-12.59,16.37-7.77-5.13-68.54-25.34-120.76,11.66,0,0-3.12-39.53,9.84-35.18Z"/>
  <g>
    <path class="cls-12" d="m149.77,171.05h0c0-17.2,13.94-31.14,31.13-31.14h143.06c17.19,0,31.13,13.94,31.13,31.13h0c0,17.2-13.94,31.14-31.13,31.14h-143.06c-17.19,0-31.13-13.94-31.13-31.13Z"/>
    <path class="cls-9" d="m147.36,171.04c0-18.49,15.04-33.54,33.54-33.54h143.06c18.49,0,33.54,15.04,33.54,33.55s-15.04,33.54-33.54,33.54h-143.06c-18.49,0-33.54-15.04-33.54-33.55Zm33.54-28.71c-15.83,0-28.71,12.88-28.71,28.73,0,15.83,12.88,28.71,28.71,28.71h143.06c15.83,0,28.71-12.88,28.71-28.73,0-15.83-12.88-28.71-28.71-28.71h-143.06Z"/>
  </g>
  <path class="cls-11" d="m193.23,171.06c0-11.41,9.24-20.65,20.65-20.65h108.56c11.41,0,20.65,9.24,20.65,20.65,0,11.41-9.25,20.65-20.65,20.65h-108.56c-11.41,0-20.65-9.24-20.65-20.65Z"/>
  <path class="cls-10" d="m60.1,230.74l4.82-.19c-.39-9.8-8.53-14.02-14.48-17.11-2.88-1.49-6.15-3.19-6.15-4.55,0-2.75,1.56-3.82,4.54-5.63,3.06-1.86,6.87-4.16,7.26-9.74.42-5.9-4.82-9.45-9.04-12.31-3.17-2.15-6.15-4.17-5.91-6.23.48-3.95,3.88-5.33,9.42-7.12,4.73-1.53,10.09-3.27,10.5-8.83.37-5.04-4.72-9.41-10.12-14.03-5.34-4.58-11.39-9.77-10.73-14.73.69-5.11,6.4-5.91,15.74-6.63,8.3-.64,17.7-1.36,20.79-8.93,3.17-7.76-1.79-17.75-6.58-27.42-4.3-8.66-8.74-17.62-5.73-22.4,5.15-8.17,26.5-4.71,55.73,9.05l2.05-4.36c-15.41-7.25-52.28-22.48-61.86-7.26-4.45,7.07.38,16.81,5.49,27.12,4.32,8.71,8.78,17.72,6.44,23.46-1.96,4.81-9.12,5.36-16.7,5.95-8.86.68-18.89,1.46-20.14,10.8-1.01,7.55,6.1,13.65,12.37,19.03,4.05,3.47,8.64,7.41,8.45,10.02-.15,2.1-2.41,3.05-7.18,4.6-5.28,1.71-11.85,3.84-12.73,11.14-.6,4.98,3.96,8.07,7.99,10.8,4.32,2.93,7.14,5.07,6.93,7.98-.21,2.95-1.93,4.13-4.95,5.96-3.06,1.85-6.86,4.16-6.86,9.75,0,4.29,4.25,6.5,8.75,8.83,5.7,2.96,11.6,6.01,11.88,13.02Z"/>
  <path class="cls-10" d="m229.17,93.65c2.5,0,4.93-.8,6.88-2.39,4.67-3.81,5.5-10.93,2.24-19.06-14.64-36.45-44.78-61.07-68.16-69.29-10.07-3.54-18.54-3.85-23.85-.87-10.68,6-8.38,22.58-6.16,38.62,1.54,11.12,3.13,22.61-.72,26.42-5.66,5.61-12.93,4.22-18.03,2.08l-1.87,4.45c9.12,3.84,17.4,2.74,23.3-3.09,5.57-5.51,3.89-17.65,2.11-30.51-1.91-13.76-4.07-29.36,3.74-33.75,4.02-2.26,11.27-1.82,19.89,1.21,22.35,7.87,51.21,31.49,65.29,66.54,2.44,6.07,2.13,11.13-.81,13.53-2.17,1.77-5.47,1.74-8.21-.07l-2.66,4.02c2.2,1.45,4.66,2.18,7.04,2.18Z"/>
  <path class="cls-10" d="m104.08,106.96c43.77-32.73,92.09-30.82,118.46-15.19l2.46-4.15c-27.7-16.42-78.26-18.58-123.81,15.47l2.89,3.86Z"/>
  <path class="cls-13" d="m303.48,189.08h22.83c1.33,0,2.41-1.08,2.41-2.41s-1.08-2.41-2.41-2.41h-22.83c-1.33,0-2.41,1.08-2.41,2.41s1.08,2.41,2.41,2.41Z"/>
  <path class="cls-13" d="m303.48,179.3h22.83c1.33,0,2.41-1.08,2.41-2.41,0-1.33-1.08-2.41-2.41-2.41h-22.83c-1.33,0-2.41,1.08-2.41,2.41s1.08,2.41,2.41,2.41Z"/>
  <path class="cls-13" d="m303.48,169.52h22.83c1.33,0,2.41-1.08,2.41-2.41,0-1.33-1.08-2.41-2.41-2.41h-22.83c-1.33,0-2.41,1.08-2.41,2.41s1.08,2.41,2.41,2.41Z"/>
  <path class="cls-13" d="m210.48,189.08h22.83c1.33,0,2.41-1.08,2.41-2.41s-1.08-2.41-2.41-2.41h-22.83c-1.33,0-2.41,1.08-2.41,2.41s1.08,2.41,2.41,2.41Z"/>
  <path class="cls-13" d="m210.48,179.3h22.83c1.33,0,2.41-1.08,2.41-2.41,0-1.33-1.08-2.41-2.41-2.41h-22.83c-1.33,0-2.41,1.08-2.41,2.41,0,1.33,1.08,2.41,2.41,2.41Z"/>
  <path class="cls-13" d="m210.48,169.52h22.83c1.33,0,2.41-1.08,2.41-2.41,0-1.33-1.08-2.41-2.41-2.41h-22.83c-1.33,0-2.41,1.08-2.41,2.41,0,1.33,1.08,2.41,2.41,2.41Z"/>
  <path class="cls-13" d="m241.48,189.08h22.84c1.33,0,2.41-1.08,2.41-2.41s-1.08-2.41-2.41-2.41h-22.84c-1.33,0-2.41,1.08-2.41,2.41s1.08,2.41,2.41,2.41Z"/>
  <path class="cls-13" d="m241.48,179.3h22.84c1.33,0,2.41-1.08,2.41-2.41s-1.08-2.41-2.41-2.41h-22.84c-1.33,0-2.41,1.08-2.41,2.41,0,1.33,1.08,2.41,2.41,2.41Z"/>
  <path class="cls-13" d="m272.48,189.08h22.83c1.33,0,2.41-1.08,2.41-2.41s-1.08-2.41-2.41-2.41h-22.83c-1.33,0-2.41,1.08-2.41,2.41s1.08,2.41,2.41,2.41Z"/>
  <path class="cls-13" d="m272.48,179.3h22.83c1.33,0,2.41-1.08,2.41-2.41s-1.08-2.41-2.41-2.41h-22.83c-1.33,0-2.41,1.08-2.41,2.41s1.08,2.41,2.41,2.41Z"/>
  <path class="cls-13" d="m272.48,169.52h22.83c1.33,0,2.41-1.08,2.41-2.41,0-1.33-1.08-2.41-2.41-2.41h-22.83c-1.33,0-2.41,1.08-2.41,2.41s1.08,2.41,2.41,2.41Z"/>
  <path class="cls-13" d="m272.48,159.75h22.83c1.33,0,2.41-1.08,2.41-2.41,0-1.33-1.08-2.41-2.41-2.41h-22.83c-1.33,0-2.41,1.08-2.41,2.41s1.08,2.41,2.41,2.41Z"/>
  <g class="cls-15">
    <path class="cls-3" d="m195.1,42.39c-.07-.79-.23-1.62-.51-2.6-.27-.98-.69-2-1.26-3.12-.57-1.07-1.34-2.23-2.3-3.29-.36-.44-.76-.87-1.21-1.25.58-2.58-.91-4.76-.91-4.76-2.46-.09-3.97.84-4.55,1.29-.1-.05-.2-.1-.3-.09-.4-.14-.85-.32-1.29-.41-.45-.14-.89-.22-1.34-.36-.45-.09-.94-.17-1.43-.26-.1,0-.15,0-.25-.04-1.17-3.37-4.25-4.72-4.25-4.72-3.34,2.25-3.96,5.32-3.96,5.32,0,0,0,.05-.04.2-.2.05-.39.11-.59.16-.24.11-.54.21-.78.27-.24.11-.54.21-.78.32-.48.26-1.02.52-1.51.78-.49.31-.97.61-1.41.92-.05-.05-.1-.05-.1-.05-4.77-1.66-8.9.67-8.9.67-.27,5.03,2.08,8.18,2.58,8.75-.09.3-.18.64-.27.94-.32,1.14-.53,2.33-.7,3.57,0,.2-.04.34-.03.54-4.38,2.18-5.55,6.64-5.55,6.64,3.75,4.1,8.04,4.29,8.04,4.29.57.97,1.23,1.84,1.94,2.71.3.34.61.67.96,1.01-1.23,3.83.37,6.99.37,6.99,4.09.04,6.7-1.94,7.23-2.4.4.14.84.22,1.24.31,1.24.31,2.53.43,3.81.5.29,0,.64-.02.93-.03h.15s.1,0,.1,0h.2s.2,0,.2,0c1.99,2.71,5.35,2.97,5.35,2.97,2.35-2.57,2.39-5.08,2.37-5.63v-.05s0-.1,0-.1v-.1c.48-.36.96-.76,1.39-1.17.92-.91,1.78-1.92,2.44-2.97.05-.1.14-.2.19-.3,2.71.08,4.59-1.79,4.59-1.79-.51-2.79-2.17-4.14-2.53-4.42l-.05-.05h-.05s-.05,0-.05-.05c0-.15.04-.34.04-.49,0-.29.03-.59.02-.94v-.25s-.01-.1-.01-.1v-.05s0-.1,0-.1v-.2s-.01-.25-.01-.25v-.25s-.01-.25-.01-.25v-.25s-.06-.25-.06-.25c-.06-.3-.12-.64-.22-.93-.33-1.22-.8-2.35-1.46-3.36-.66-1.02-1.48-1.93-2.38-2.7-.91-.77-1.91-1.33-2.95-1.8-1.04-.42-2.14-.73-3.22-.81-.54-.03-1.09-.07-1.63-.06h-.2s-.05,0-.05,0c0,0-.1,0-.05,0h-.1s-.2,0-.2,0h-.2c-.3.06-.54.07-.83.12-1.08.22-2.05.64-2.97,1.21-.87.56-1.64,1.22-2.26,2.03-.62.76-1.09,1.6-1.42,2.5-.33.9-.5,1.79-.52,2.67l.02.64v.15s0,.2,0,.2v.29c.07.44.17.88.29,1.27.27.83.63,1.56,1.13,2.14.46.63,1.06,1.11,1.66,1.54.6.38,1.25.66,1.89.84.64.18,1.24.21,1.83.2h.2s.1,0,.1,0h.1s.2,0,.2,0h.05s.05,0,.05,0h.1c.1,0,.15,0,.2-.06.05,0,.15-.05.2-.05.15-.05.25-.06.39-.11.24-.11.49-.21.73-.31.24-.11.43-.26.63-.41.05-.05.1-.1.14-.1.19-.15.24-.45.03-.64-.15-.19-.4-.24-.6-.08-.05.05-.1.05-.14.1-.14.1-.34.16-.54.21-.2.05-.39.11-.59.16-.1,0-.2.05-.3.06h-.15s-.15,0-.15,0h-.15s-.2,0-.2,0h-.05s-.1,0-.1,0h-.15c-.44-.03-.94-.17-1.39-.35-.45-.19-.9-.47-1.3-.81-.4-.33-.76-.77-1.02-1.21-.26-.48-.47-.97-.58-1.56-.06-.3-.06-.54-.07-.84v-.25s0-.05,0-.05v-.05s0-.1,0-.1c0-.15.04-.3.04-.44.17-1.19.78-2.38,1.69-3.3.24-.25.48-.46.72-.61.24-.2.54-.36.83-.51.29-.15.58-.26.93-.37.29-.11.64-.17.98-.17h.49s.1-.01.1-.01h.15s.1,0,.1,0h.05s.15,0,.15,0c.34.04.74.08,1.09.12.69.13,1.39.36,2.04.74,1.3.66,2.41,1.77,3.13,3.08.36.68.63,1.36.74,2.1.05.2.06.39.06.54v.15s0,.15,0,.15v.15s0,.15,0,.15v.1s0,.15,0,.15v.34c0,.2-.03.39-.03.59,0,.2-.04.39-.09.59s-.09.4-.13.59c-.09.4-.22.79-.37,1.19-.28.75-.65,1.49-1.13,2.2-.95,1.35-2.2,2.47-3.72,3.2-.73.36-1.51.63-2.35.8-.39.06-.83.12-1.23.18h-.1s-.05,0-.05,0h-.15s-.2,0-.2,0h-.1s-.05,0-.05,0c-.2,0-.44.01-.64-.03-.89-.03-1.78-.2-2.62-.43-.84-.22-1.69-.55-2.44-.92-1.55-.8-3-1.89-4.12-3.25-.56-.67-1.07-1.4-1.48-2.13-.41-.78-.73-1.56-.99-2.39-.27-.83-.39-1.67-.51-2.5v-.15s0-.05,0-.05v-.05s0-.05,0-.05v-.15s0-.05,0-.05v-.05s0-.1,0-.1v-.2s0-.05,0-.05v-.1s-.01-.29-.01-.29c-.01-.44.03-.84.07-1.28.04-.44.13-.89.17-1.29.09-.45.18-.84.27-1.29.22-.84.5-1.69.83-2.43.65-1.54,1.55-2.95,2.66-4.06.29-.3.58-.56.87-.81.29-.25.58-.46.92-.71.29-.2.63-.41.97-.61.14-.1.34-.16.48-.26.1-.05.19-.1.24-.11.1-.05.19-.1.24-.11.34-.15.73-.31,1.07-.42.1-.05.2-.05.29-.1.1-.05.2-.05.29-.11.2-.05.39-.11.54-.16.1-.05.2-.05.3-.06s.2-.05.3-.06.2-.05.3-.06l.15-.05h.15c.1,0,.2-.06.3-.06s.2-.05.35-.06c.1,0,.25-.06.34-.05h.2s.15,0,.15,0h.05s.1,0,.1,0h.34s.15,0,.15,0h.05s.05,0,.05,0h.3s1.08-.04,1.08-.04c.74.03,1.43.06,2.12.19,1.39.21,2.72.62,3.92,1.18s2.3,1.22,3.2,1.99c.05.05.1.1.15.14.05.05.1.09.15.14.1.1.2.19.35.29.1.1.2.19.3.29.1.1.2.19.3.29.41.38.76.82,1.11,1.25.66.82,1.22,1.65,1.64,2.47.05.05.05.1.1.14.05.04.05.1.05.15.05.1.1.19.15.29.05.1.1.19.16.29.05.1.1.19.15.29.16.39.31.73.42,1.07.21.54.37,1.03.48,1.47.05.15.2.29.4.24.2,0,.34-.16.34-.35.28-.75.27-1.29.2-1.88h0Z"/>
  </g>
  <path class="cls-8" d="m372.19,371.18c.75,14.25.93,18,.93,18,.04.74-.42,1.42-1.12,1.66l-92.1,31.67c-.18.06-.36.09-.54.09-.34,0-.69-.11-.97-.32-.44-.32-.69-.83-.68-1.37,0-.16.11-9.12-.64-18.07-3.89.75-7.56,1.04-10.86,1.04-8.3,0-14.27-1.77-15.64-2.22-.35,0-.7-.02-1.05-.06-1.41-.17-2.51-.86-3.19-1.99-2.24-3.73.57-11.54,5.35-23.96-6.45,1.51-13.09,1.95-18.59,1.95-6.4,0-11.25-.59-12.45-.75-.83.16-1.63.16-2.42-.02-6.15-1.36-3.32-16.49,3.15-47.83,2.35-11.38,4.91-23.81,6.79-35.49l-18.72,3.13c-.4.11-.77.14-1.11.14-3.48-.08-4.74-5.15-5.15-6.82-1.76-7.07-1.14-17.57,1.61-27.41,1.39-4.97,5.4-16.89,12.54-20.17,1.02-.47,2.22-.81,3.54-.81l119.88-6.15c.73-.08,6.02-.49,9.59,3.6,3.5,4.02,4.01,10.82,1.52,20.2l-13.8,60.88,9.91-2.37c.14-.03.28-.05.42-.05.19,0,4.66.14,7.28,3.91,2.28,3.29,2.36,8.14.22,14.41-3.18,9.3-.41,17.13.88,19.98l4.14-1.31c.21-.06.43-.09.64-.07.4.03,9.83,1.05,10.64,16.56h0Z"/>
  <g>
    <path class="cls-10" d="m372.19,371.18c.75,14.25.93,18,.93,18,.04.74-.42,1.42-1.12,1.66l-92.1,31.67c-.18.06-.36.09-.54.09-.34,0-.69-.11-.97-.32-.44-.32-.69-.83-.68-1.37,0-.16.11-9.12-.64-18.07-3.89.75-7.56,1.04-10.86,1.04-8.3,0-14.27-1.77-15.64-2.22-.35,0-.7-.02-1.05-.06-1.41-.17-2.51-.86-3.19-1.99-2.24-3.73.57-11.54,5.35-23.96-6.45,1.51-13.09,1.95-18.59,1.95-6.4,0-11.25-.59-12.45-.75-.83.16-1.63.16-2.42-.02-6.15-1.36-3.32-16.49,3.15-47.83,2.35-11.38,4.91-23.81,6.79-35.49l-18.72,3.13c-.4.11-.77.14-1.11.14-3.48-.08-4.74-5.15-5.15-6.82-1.76-7.07-1.14-17.57,1.61-27.41,1.39-4.97,5.4-16.89,12.54-20.17,1.02-.47,2.22-.81,3.54-.81l119.88-6.15c.73-.08,6.02-.49,9.59,3.6,3.5,4.02,4.01,10.82,1.52,20.2l-13.8,60.88,9.91-2.37c.14-.03.28-.05.42-.05.19,0,4.66.14,7.28,3.91,2.28,3.29,2.36,8.14.22,14.41-3.18,9.3-.41,17.13.88,19.98l4.14-1.31c.21-.06.43-.09.64-.07.4.03,9.83,1.05,10.64,16.56h0Zm-163.64-77.76c.56-.21,2.78-1.58,6.63-10.94,2.42-5.9,4.22-11.88,4.24-11.95.18-.62.71-1.07,1.34-1.17l10.12-1.5c.17-8.03-.71-14.42-3.22-18.01-2.29-3.27-4.58-4.92-6.84-4.92-.71,0-1.41.16-2.11.48-4.02,1.85-8.13,8.76-10.73,18.05-2.61,9.31-3.22,19.15-1.59,25.69.85,3.4,1.74,4.22,1.99,4.29l.17-.03h0Zm5.3-.89l14.84-2.48c1.01-6.71,1.75-13.09,2.06-18.8l-8.48,1.26c-.62,1.99-2.12,6.59-4.04,11.25-1.65,4.03-3.1,6.84-4.37,8.78h0Zm6.47,81c4.3-1.03,11.07-9.5,16.62-16.46,7.11-8.92,13.3-16.66,18.68-17.22l78.85-18.87,14.17-62.51s.01-.04.02-.06c2.16-8.13,1.89-14.05-.78-17.15-2.57-2.98-6.74-2.51-6.78-2.51-.04,0-.08.01-.12.01l-113.46,5.82c.94.88,1.9,1.99,2.86,3.37,8.57,12.27.96,49.17-5.76,81.74-2.48,11.99-4.81,23.32-5.88,31.54-1.52,11.64.18,12.35.2,12.36.37.08.77.08,1.19,0,.06-.02.13-.03.2-.05h0Zm5.78.48c6.3.41,17.23.56,27.03-2.17,4.19-11.02,8.4-23.32,4.98-27.65-.73-.93-1.39-1.05-1.87-1.05h0c-3.93,0-10.72,8.5-16.72,16.01-4.69,5.87-9.22,11.55-13.42,14.86h0Zm23.8,24.27c4.69.56,9.77-4.73,13.85-8.98,3.05-3.18,5.58-5.81,8.03-6.45l81.79-25.85c-1.57-3.6-4.26-12.02-.83-22.07,1.75-5.11,1.82-9.05.22-11.39-1.4-2.05-3.8-2.43-4.48-2.5l-87.83,21.02s.03.04.05.06c4.99,6.32-.54,20.69-5.89,34.59-3.36,8.74-7.17,18.64-5.65,21.18.1.16.24.34.74.4h0Zm6.97,1.44c4.64.8,11.79,1.39,19.87-.21-.57-5.2-1.48-10.02-2.93-12.63-.16-.3-.49-.8-.82-.84-.08-.01-.17,0-.26,0l-.05.02c-.08.03-.17.05-.25.06-1.51.51-4.13,3.25-6.3,5.5-2.72,2.84-5.84,6.09-9.25,8.11h0Zm24.14,18.87l88.72-30.51c-.1-2.03-.35-6.86-.87-16.73-.59-11.21-6.07-13.09-7.36-13.37l-85.05,26.88c.08.13.16.26.24.4,3.88,6.99,4.3,26.51,4.32,33.34h0Z"/>
    <path class="cls-10" d="m277.98,422.84c-.62-.44-.98-1.17-.97-1.94,0-.08.1-8.59-.57-17.23-3.35.6-6.79.91-10.23.91-8.1,0-13.99-1.66-15.75-2.22-.34,0-.68-.02-1.02-.07-1.63-.19-2.91-1-3.7-2.32-2.33-3.89.26-11.44,4.83-23.36-5.26,1.12-11.14,1.68-17.48,1.68s-10.98-.55-12.44-.74c-.9.16-1.77.14-2.58-.04-6.8-1.51-4.11-16,2.62-48.64,2.24-10.84,4.76-23.09,6.63-34.51l-17.71,2.96c-.43.12-.86.16-1.31.16-4.01-.1-5.36-5.55-5.81-7.34-1.78-7.18-1.16-17.81,1.62-27.76,1.42-5.07,5.52-17.21,12.92-20.61,1.26-.58,2.55-.87,3.79-.87h0l119.84-6.15c.64-.07,6.36-.56,10.18,3.83,3.66,4.2,4.22,11.21,1.67,20.81l-13.56,59.8,8.83-2.11c.18-.04.37-.06.59-.06h0c.2,0,5.02.15,7.83,4.21,2.42,3.49,2.52,8.54.3,15.02-2.9,8.5-.73,15.72.61,18.91l3.55-1.12c.29-.09.6-.12.91-.1.42.04,9.95,1.04,11.19,16.08h.02s.06,1.13.06,1.13c.75,14.25.93,18,.93,18,.05,1.04-.6,2.01-1.58,2.35l-92.11,31.67c-.25.08-.51.13-.76.13-.5,0-.98-.15-1.38-.45Zm93.57-50.47l-.06-1.14c-.78-14.94-9.64-15.88-10.01-15.91-.13,0-.26,0-.38.04l-4.73,1.49-.25-.56c-1.35-2.99-4.15-10.98-.9-20.49,2.07-6.05,2.02-10.69-.13-13.79-2.42-3.48-6.55-3.61-6.71-3.62-.1,0-.19,0-.26.03l-10.98,2.63,14.05-61.99c2.43-9.15,1.97-15.74-1.37-19.57-3.37-3.86-8.43-3.42-9.04-3.36l-119.92,6.15c-1.08,0-2.17.25-3.25.75-6.87,3.16-10.8,14.85-12.16,19.73-2.72,9.73-3.34,20.09-1.61,27.05.38,1.54,1.54,6.22,4.5,6.29.32,0,.62-.03.99-.13l19.67-3.29-.15.95c-1.89,11.72-4.49,24.36-6.79,35.52-6.2,30.06-9.18,45.8-3.67,47.02.67.15,1.39.15,2.14.01l.11-.02h.11c1.3.19,6.03.75,12.36.75,6.76,0,12.96-.65,18.43-1.93l1.27-.29-.47,1.21c-4.72,12.26-7.44,19.95-5.4,23.35.57.96,1.47,1.52,2.68,1.66.32.04.65.06.97.06l.21.03c1.58.51,7.37,2.19,15.43,2.19,3.62,0,7.22-.34,10.73-1.02l.75-.15.06.76c.75,9.05.64,18.07.64,18.14,0,.32.14.62.4.8.25.18.56.24.88.13l92.1-31.67c.41-.14.67-.54.65-.97,0,0-.18-3.55-.87-16.85h0Zm-91.81,45.94l.58-.2c-.04-6.53-.49-25.76-4.23-32.5-.07-.12-.14-.24-.21-.36l-.49-.76,85.92-27.16.18-.06.18.04c1.21.27,7.28,2.21,7.9,14.01.48,9.16.73,13.98.84,16.25l.05,1.01-88.74,30.51v1.18s-1.96-1.96-1.96-1.96Zm88.44-46.91c-.54-10.3-5.3-12.33-6.65-12.69l-84.05,26.57c3.58,6.98,4.16,24.22,4.22,32.37l87.32-30.03c-.12-2.28-.36-7.1-.84-16.21Zm-111.43,29.01l.07-.77-.3-.5c3.32-1.97,6.39-5.16,9.11-7.99,2.3-2.4,4.9-5.11,6.57-5.68l.43-.1c.17-.02.32-.02.43,0,.49.06.93.45,1.34,1.19,1.32,2.39,2.34,6.72,3.02,12.89l.07.63-.62.12c-3.78.75-7.36,1.03-10.58,1.03-3.77,0-7.03-.38-9.54-.81Zm16.45-13.19c-.19-.35-.34-.49-.31-.5-.13.04-.25.07-.24.06-1.36.46-4.05,3.27-6.03,5.34-2.35,2.45-4.98,5.18-7.85,7.22,4.37.6,10.45.89,17.22-.37-.65-5.64-1.59-9.59-2.78-11.74Zm-23.38,11.76c-.6-.07-1-.31-1.25-.73-1.57-2.62,1.33-10.68,5.61-21.8,5.27-13.71,10.73-27.89,6-33.88l-.63-.95,88.78-21.25.11-.03h.12c.77.09,3.41.52,4.98,2.81,1.73,2.53,1.68,6.68-.14,12.01-3.41,9.98-.57,18.41.81,21.57l.31.7-82.55,26.09c-2.26.6-4.78,3.22-7.72,6.28-3.96,4.13-8.85,9.21-13.63,9.21h0v.05l-.77-.09Zm102.27-64.27c1.67-4.9,1.78-8.63.3-10.78-1.17-1.7-3.14-2.1-3.87-2.19l-86.72,20.76c4.25,6.94-1.13,20.92-6.34,34.47-2.98,7.73-7.05,18.33-5.7,20.59,0,0,.03.02.11.04h.11c4.33.52,9.28-4.61,13.27-8.76,3.19-3.32,5.71-5.95,8.32-6.63l81.07-25.62c-1.75-4.32-3.8-12.35-.55-21.86Zm-126.03,39.99l-.64-.04v-.98l.26-.21c4.12-3.25,8.56-8.81,13.31-14.76,6.38-7.99,12.98-16.26,17.25-16.26.59,0,1.48.14,2.41,1.32,3.67,4.65-.59,17.06-4.88,28.32l-.12.33-.34.09c-6.9,1.92-14.4,2.42-20.32,2.42-2.71,0-5.1-.11-6.94-.22Zm31.51-30.08c-.62-.79-1.1-.79-1.33-.79-3.6,0-10.57,8.73-16.22,15.81-4.25,5.32-8.3,10.39-12.14,13.79,6.02.29,15.87.25,24.74-2.15,3.02-7.95,8.4-22.29,4.96-26.65Zm-38.82,29.62c-.86-.25-2.1-2.28-.69-13.11,1.08-8.29,3.42-19.61,5.89-31.59,6.69-32.43,14.28-69.18,5.87-81.2-.9-1.29-1.83-2.38-2.77-3.26l-1.19-1.11,115.18-5.91c.47-.04,4.68-.36,7.36,2.75,2.83,3.28,3.15,9.42.91,17.81l-14.27,62.93-79.36,18.99c-5.1.53-11.17,8.15-18.21,16.97-5.84,7.32-12.45,15.61-16.99,16.7l-.29.07h-.01c-.23.03-.46.05-.68.05-.26,0-.5-.03-.75-.08Zm17.66-17.6c7.23-9.06,13.47-16.89,19.05-17.47l78.43-18.77,14.1-62.18c2.1-7.89,1.88-13.61-.63-16.52-2.22-2.58-5.78-2.31-6.18-2.27l-112.09,5.76c.63.7,1.26,1.49,1.87,2.36,8.75,12.51,1.1,49.57-5.65,82.27-2.47,11.96-4.8,23.25-5.87,31.49-1.17,9.01-.38,11.2-.14,11.63.21.02.44.01.65-.03.09-.03.19-.05.29-.06h.01c4.09-1.05,11.07-9.81,16.18-16.2Zm-23.23-64.7l.28-.05c1.3-2.05,2.7-4.88,4.15-8.41,1.93-4.7,3.46-9.39,4.02-11.19l.13-.41,9.75-1.44-.04.84c-.28,5.34-.96,11.52-2.06,18.87l-.07.5-15.03,2.51-1.1,1.69v-2.9Zm16.85-19.89l-7.22,1.07c-.65,2.05-2.11,6.47-3.93,10.89-1.25,3.05-2.47,5.59-3.63,7.59l12.85-2.15c1-6.71,1.63-12.42,1.93-17.4Zm-21.82,22.06c-.88-.23-1.78-1.98-2.48-4.79-1.65-6.65-1.04-16.63,1.6-26.05,2.65-9.47,6.9-16.56,11.1-18.49,3.22-1.48,6.61.09,9.81,4.67,2.44,3.49,3.54,9.52,3.35,18.42v.58s-10.71,1.58-10.71,1.58c-.38.06-.68.32-.79.7-.19.64-1.95,6.38-4.26,11.99-3.69,8.98-5.99,10.95-7.03,11.33l-.44.09-.15-.04Zm18.9-43.87c-2.79-3.99-5.48-5.41-8.11-4.2-3.84,1.77-7.81,8.51-10.35,17.61-2.58,9.2-3.19,18.91-1.58,25.34.63,2.51,1.23,3.42,1.43,3.69.6-.37,2.63-2.15,6.06-10.47,2.28-5.55,4.02-11.24,4.22-11.88.26-.87,1.01-1.52,1.9-1.65l9.55-1.41c.12-8.17-.92-13.89-3.11-17.02Z"/>
  </g>
  <path class="cls-4" d="m348.01,279.26l-4.39,14.04c14.6,2.89,22.69-1.82,29.1-14.33,5.49-10.73,4.73-28.86-9.74-32.03"/>
  <path class="cls-4" d="m370.86,265.84l-10.14,20.11-9.13-4.06c-3.93-.9-12.69-7.65-10.35-19.62,2.34-11.98,13.1-17.57,22.06-15.22l7.56,18.8Z"/>
  <path class="cls-10" d="m372.72,281.39c.88,0,1.72-.48,2.15-1.31,3.42-6.68,5.1-17.17,1.14-25.54-2.48-5.25-6.81-8.69-12.51-9.94-1.31-.29-2.59.54-2.87,1.84s.54,2.59,1.84,2.87c4.25.93,7.34,3.38,9.18,7.29,2.78,5.88,2.33,14.63-1.08,21.29-.61,1.18-.14,2.64,1.05,3.24.35.18.73.27,1.1.27Z"/>
  <path class="cls-10" d="m346.97,281.75c.69,0,1.38-.3,1.85-.87.85-1.02.71-2.54-.31-3.4-2.01-1.68-6.52-6.48-4.91-14.77.96-4.93,3.64-9,7.53-11.44,3.52-2.21,7.74-2.91,11.56-1.91,1.29.33,2.61-.43,2.94-1.72.34-1.29-.43-2.61-1.72-2.94-5.11-1.33-10.7-.43-15.35,2.49-5.03,3.16-8.47,8.35-9.69,14.6-2.11,10.82,3.88,17.17,6.55,19.4.45.38,1,.56,1.54.56Z"/>
  <path class="cls-10" d="m351.23,296.54c10.57,0,17.87-5.2,23.64-16.46.61-1.19.14-2.64-1.05-3.25-1.18-.61-2.64-.14-3.24,1.05-6.21,12.12-13.39,15.66-26.49,13.07-1.31-.26-2.57.59-2.83,1.9-.26,1.31.59,2.58,1.9,2.83,2.89.57,5.57.86,8.07.86Z"/>
  <path class="cls-4" d="m167.59,280.59c23.38,10.86,41.79,9.9,44.07-5.86,2.29-15.76-19.3-27.21-30.47-28.32"/>
  <path class="cls-10" d="m194.36,290.22c4.42,0,8.24-.83,11.34-2.51,4.62-2.5,7.51-6.87,8.34-12.64.78-5.35-.84-10.76-4.67-15.66-6.71-8.57-19.48-14.56-27.95-15.4-1.32-.14-2.51.84-2.64,2.16-.13,1.32.84,2.51,2.16,2.64,7.3.72,18.79,6.12,24.62,13.57,3.05,3.89,4.29,7.93,3.7,12-.62,4.26-2.59,7.31-5.87,9.09-7.01,3.8-19.69,1.95-34.8-5.07-1.21-.56-2.64-.04-3.2,1.17-.56,1.21-.04,2.64,1.17,3.2,10.63,4.94,20.11,7.44,27.79,7.44Z"/>
  <path class="cls-6" d="m273.68,228.99c5.43-1.74,8.83-6.26,7.6-10.09-1.23-3.83-6.63-5.53-12.05-3.79-5.43,1.74-8.83,6.26-7.6,10.09,1.23,3.83,6.63,5.53,12.05,3.79Z"/>
  <g class="cls-1">
    <path class="cls-5" d="m257.32,267.09s.1,0,.14,0l69.62-4.83c1.14-.08,2-1.07,1.92-2.21-.08-1.14-1.07-2.02-2.21-1.92l-69.62,4.83c-1.14.08-2,1.07-1.92,2.21.08,1.09.98,1.93,2.06,1.93Z"/>
  </g>
  <g class="cls-1">
    <path class="cls-5" d="m257.32,279.5s.1,0,.14,0l69.62-4.83c1.14-.08,2-1.07,1.92-2.21-.08-1.14-1.07-2-2.21-1.92l-69.62,4.83c-1.14.08-2,1.07-1.92,2.21.08,1.09.98,1.93,2.06,1.93Z"/>
  </g>
  <g class="cls-1">
    <path class="cls-5" d="m257.32,293.29c.06,0,.12,0,.19,0l69.62-6.2c1.14-.1,1.98-1.11,1.88-2.24-.1-1.14-1.11-1.97-2.24-1.88l-69.62,6.2c-1.14.1-1.98,1.11-1.88,2.24.1,1.08,1,1.88,2.06,1.88Z"/>
  </g>
  <g class="cls-1">
    <path class="cls-5" d="m257.32,306.38c.07,0,.14,0,.21,0l69.62-6.89c1.14-.11,1.97-1.13,1.85-2.26-.11-1.14-1.14-1.96-2.26-1.86l-69.62,6.89c-1.14.11-1.97,1.13-1.85,2.26.11,1.07,1.01,1.86,2.06,1.86Z"/>
  </g>
  <g class="cls-1">
    <path class="cls-5" d="m258.69,322.24c.1,0,.21,0,.31-.02l68.24-10.34c1.13-.17,1.91-1.23,1.73-2.35-.17-1.13-1.22-1.89-2.35-1.74l-68.24,10.34c-1.13.17-1.91,1.23-1.73,2.35.15,1.02,1.04,1.76,2.04,1.76Z"/>
  </g>
</svg>