<?xml version="1.0" encoding="UTF-8"?>
<svg id="Layer_1" data-name="Layer 1" xmlns="http://www.w3.org/2000/svg" viewBox="0 0 458 380.49">
  <defs>
    <style>
      .cls-1 {
        fill: #585ba8;
        stroke: #231735;
      }

      .cls-1, .cls-2, .cls-3, .cls-4 {
        stroke-width: 5px;
      }

      .cls-1, .cls-2, .cls-3, .cls-4, .cls-5 {
        stroke-miterlimit: 10;
      }

      .cls-2 {
        fill: #f9c213;
      }

      .cls-2, .cls-3, .cls-4 {
        stroke: #38170f;
      }

      .cls-6 {
        fill: #f9a01b;
      }

      .cls-7 {
        fill: #010101;
      }

      .cls-8 {
        fill: #ee6224;
      }

      .cls-9, .cls-10, .cls-11 {
        fill: #fff;
      }

      .cls-12 {
        fill: #120d19;
      }

      .cls-13 {
        fill: #1c0f2d;
      }

      .cls-14 {
        fill: rgba(249, 194, 19, .5);
      }

      .cls-10 {
        opacity: .2;
      }

      .cls-10, .cls-11, .cls-15 {
        isolation: isolate;
      }

      .cls-3, .cls-4, .cls-5 {
        fill: none;
      }

      .cls-11 {
        opacity: .6;
      }

      .cls-15 {
        fill: #111222;
        opacity: .1;
      }

      .cls-4, .cls-5 {
        stroke-linecap: round;
      }

      .cls-5 {
        stroke: #fff;
        stroke-width: 5.18px;
      }
    </style>
  </defs>
  <path class="cls-15" d="m198.42,380.49c73.06,0,132.28-6.95,132.28-15.53s-59.22-15.53-132.28-15.53-132.28,6.95-132.28,15.53,59.22,15.53,132.28,15.53Z"/>
  <path class="cls-6" d="m272.3,263.23c11.21,3.13,101.26,29.14,85.96,51.68-14.35,21.13-84.04-3.95-105.96-19.22"/>
  <path class="cls-4" d="m272.3,263.23c11.21,3.13,101.26,29.14,85.96,51.68-14.35,21.13-84.04-3.95-105.96-19.22"/>
  <path class="cls-8" d="m144.24,85.08c-31.77-22.15-72.42-27.12-79.57-19.17-5.8,6.44,16.11,41.72,12.56,52.03-3.54,10.31-34.62,3.64-38.02,16.75-1.61,6.23,22.23,21.26,21.59,29.96-.64,8.7-19.05,6.24-20.4,17.5-.91,7.57,15.89,9.24,15.25,18.26-.64,9.02-12.77,7.37-12.24,16.11.43,7.09,13.69,2.42,17.24,14.34,3.54,11.92,83.6-145.78,83.6-145.78h-.01Z"/>
  <path class="cls-2" d="m2.52,296.63c.97-29.16,21.32-35.63,36.1-30.65,14.77,4.98,13.95,22.15,10.22,28.61-5.96,10.31-14.71,5.86-11.44-1.36,2.42-6.93,2.87-16.55-8.58-13.49-14.23,3.81-9.8,42.07,20.16,34.55,20.52-5.15,18.91-26.88,17.28-58.57-4.37-30.66.36-70.86,13.4-109.02,26.42-77.32,185.57-102.45,238.4-30.93,68.63,92.9-7.05,183.64-18.69,195.23-36.26,28.14-30.38,53.6-56.36,55.29-24.69,1.61-22.66-23.48-38.99-24.88-.96,0-1.92,0-2.88-.02-19.17,1.41-22.87,25.32-51.78,24.9-23.56-.34-13.07-20.92-28.81-30.79-3.3-1.56-6.16-2.66-8.8-3.38-2.08-.44-4.39-.76-7-.92-.6-.04-4.23-.02-5.29-.02-9.35.17-14.96,2.38-36.09,6.68-38.07,7.74-61.67-16.56-60.85-41.23Z"/>
  <path class="cls-8" d="m106.44,104.82c54.12-38.34,117.11-17.4,125.16-12.08,8.05,5.32,19.46-1,13.05-16.97C223.17,22.29,167.75-4.91,152.83,4.3c-16.68,10.3,4.3,56.24-6.6,67.01-8.75,8.64-14.71,2.04-29.59-2.95-13.44-4.51-10.2,36.46-10.2,36.46Z"/>
  <path class="cls-14" d="m201.21,45.46c-.04-.77-.16-1.59-.39-2.55-.22-.96-.59-1.98-1.1-3.09-.51-1.06-1.21-2.23-2.1-3.3-.33-.44-.7-.88-1.13-1.27.67-2.49-.69-4.67-.69-4.67-2.39-.19-3.9.65-4.48,1.07-.09-.05-.19-.1-.29-.1-.38-.15-.81-.35-1.24-.45-.43-.15-.86-.26-1.29-.41-.43-.1-.91-.2-1.39-.31-.1,0-.14,0-.24-.05-1-3.33-3.95-4.77-3.95-4.77-3.35,2.05-4.07,5.02-4.07,5.02,0,0,0,.05-.05.19-.19.04-.39.09-.58.13-.24.09-.53.18-.77.23-.24.09-.53.18-.77.28-.48.23-1.02.46-1.5.7-.48.28-.97.56-1.41.84-.04-.05-.09-.05-.09-.05-4.58-1.81-8.69.28-8.69.28-.47,4.89,1.69,8.04,2.15,8.62-.1.29-.2.62-.3.91-.36,1.1-.62,2.24-.83,3.44,0,.19-.05.33-.06.53-4.35,1.94-5.67,6.24-5.67,6.24,3.48,4.14,7.65,4.5,7.65,4.5.51.97,1.12,1.84,1.78,2.72.28.34.57.68.89,1.03-1.36,3.67.08,6.81.08,6.81,3.98.21,6.6-1.62,7.14-2.04.38.15.81.25,1.2.35,1.2.35,2.44.52,3.69.64.29,0,.62,0,.91.01h.14s.1,0,.1,0h.19s.19.01.19.01c1.83,2.72,5.08,3.11,5.08,3.11,2.39-2.41,2.53-4.85,2.54-5.38v-.05s0-.1,0-.1v-.1c.49-.33.97-.7,1.41-1.08.93-.85,1.81-1.79,2.5-2.79.05-.09.15-.19.2-.28,2.63.19,4.54-1.55,4.54-1.55-.39-2.74-1.95-4.11-2.28-4.4l-.05-.05h-.05s-.05,0-.05-.05c0-.14.05-.33.06-.48,0-.29.06-.57.06-.91v-.24s0-.1,0-.1v-.05s0-.1,0-.1v-.19s0-.24,0-.24v-.24s0-.24,0-.24v-.24s-.04-.24-.04-.24c-.04-.29-.09-.62-.18-.92-.27-1.2-.68-2.32-1.29-3.34-.6-1.02-1.36-1.94-2.21-2.72-.85-.78-1.8-1.38-2.8-1.87-1-.45-2.05-.8-3.1-.92-.53-.06-1.06-.11-1.58-.12h-.19s-.05,0-.05,0c0,0-.1,0-.05,0h-.29s-.19-.01-.19-.01c-.29.04-.53.04-.82.08-1.06.17-2.02.54-2.94,1.05-.87.51-1.65,1.12-2.29,1.88-.64.71-1.13,1.52-1.48,2.38-.35.86-.56,1.72-.62,2.58v.62s-.01.14-.01.14v.19s0,.29,0,.29c.04.43.13.87.22,1.25.23.82.55,1.54,1.02,2.13.42.63.99,1.12,1.56,1.56.57.39,1.19.69,1.81.89.62.2,1.2.26,1.77.27h.19s.1,0,.1,0h.29s.05,0,.05,0h.05s.1,0,.1,0c.1,0,.14,0,.19-.04.05,0,.15-.05.19-.04.15-.04.24-.04.38-.09.24-.09.48-.18.72-.28.24-.09.43-.23.63-.38.05-.04.1-.1.14-.09.19-.14.25-.43.06-.62-.14-.19-.38-.25-.57-.11-.05.05-.1.05-.14.09-.14.09-.34.14-.53.18-.19.04-.38.09-.58.13-.1,0-.19.04-.29.04h-.14s-.14,0-.14,0h-.14s-.19,0-.19,0h-.05s-.1,0-.1,0h-.14c-.43-.06-.91-.21-1.34-.41-.43-.2-.86-.5-1.23-.84-.38-.34-.71-.78-.94-1.21-.23-.48-.42-.97-.5-1.54-.04-.29-.04-.53-.03-.82v-.24s0-.05,0-.05v-.05s0-.1,0-.1c0-.14.05-.29.06-.43.21-1.15.85-2.29,1.78-3.14.24-.24.49-.43.73-.56.25-.19.54-.33.83-.47.29-.14.58-.23.92-.32.29-.09.63-.14.96-.13h.48s.1.01.1.01h.14s.1,0,.1,0h.05s.14,0,.14,0c.33.05.72.11,1.05.16.67.15,1.34.41,1.95.8,1.24.69,2.27,1.82,2.93,3.12.32.68.55,1.35.64,2.07.04.19.04.39.04.53v.14s0,.14,0,.14v.14s0,.14,0,.14v.1s0,.14,0,.14v.33c-.01.19-.06.38-.07.57,0,.19-.05.38-.11.58-.05.19-.1.38-.15.57-.1.38-.25.77-.4,1.15-.3.71-.7,1.43-1.19,2.09-.98,1.28-2.25,2.31-3.75,2.96-.73.32-1.5.55-2.32.68-.39.04-.82.08-1.2.12h-.14s-.14,0-.14,0h-.19s-.1,0-.1,0h-.05c-.19,0-.43-.01-.62-.06-.86-.06-1.72-.27-2.54-.52-.81-.25-1.62-.6-2.33-1-1.47-.84-2.85-1.97-3.88-3.33-.52-.68-.98-1.41-1.35-2.13-.37-.77-.64-1.54-.87-2.37-.23-.82-.31-1.64-.39-2.45v-.14s0-.05,0-.05v-.05s0-.05,0-.05v-.14s0-.05,0-.05v-.05s0-.1,0-.1v-.19s0-.05,0-.05v-.38c.01-.43.07-.81.12-1.25.05-.43.16-.86.21-1.25.11-.43.21-.81.31-1.24.25-.81.55-1.62.9-2.33.7-1.48,1.63-2.8,2.75-3.84.29-.28.58-.52.88-.75.29-.23.58-.42.92-.66.29-.19.63-.38.97-.56.14-.09.34-.14.48-.23.1-.05.19-.09.24-.09.1-.05.19-.09.24-.09.34-.14.72-.27,1.06-.37.1-.05.19-.04.29-.09.1-.05.19-.04.29-.09.19-.04.38-.09.53-.14.1-.05.19-.04.29-.04s.19-.04.29-.04c.1,0,.19-.04.29-.04l.15-.04h.14c.1,0,.19-.04.29-.04.1,0,.19-.04.34-.04.1,0,.24-.04.34-.04h.19s.14,0,.14,0h.05s.1,0,.1,0h.34s.14.01.14.01h.05s.05,0,.05,0h.29s1.05.02,1.05.02c.72.06,1.39.12,2.06.27,1.34.26,2.63.72,3.77,1.31,1.14.6,2.18,1.28,3.04,2.07.04.05.1.1.14.15.05.05.1.1.14.15.1.1.19.2.33.29.1.1.19.2.28.29.1.1.19.2.28.29.38.39.71.83,1.04,1.26.61.83,1.12,1.65,1.49,2.47.04.05.05.1.09.14.05.05.05.1.05.15.05.1.09.19.14.29.05.1.09.19.14.29.05.1.09.19.14.29.14.39.28.72.37,1.06.18.53.32,1.01.4,1.45.05.15.19.29.38.24.19,0,.34-.14.34-.33.3-.71.31-1.24.27-1.82h0Z"/>
  <path class="cls-1" d="m187.49,209.56h148.28c17.82,0,32.26-14.44,32.26-32.26h0c0-17.83-14.44-32.27-32.26-32.27h-148.28c-17.82,0-32.26,14.44-32.26,32.26h0c0,17.83,14.44,32.27,32.26,32.27Z"/>
  <path class="cls-13" d="m221.66,198.71h112.52c11.82,0,21.4-9.58,21.4-21.4s-9.58-21.4-21.4-21.4h-112.52c-11.82,0-21.4,9.58-21.4,21.4s9.58,21.4,21.4,21.4Z"/>
  <path class="cls-6" d="m183.35,267.35c-.62,18.84-7.35,36.35-21.32,35.16-15.43-1.31-19.26-17.32-18.73-34.71"/>
  <path class="cls-4" d="m183.35,267.35c-.62,18.84-7.35,36.35-21.32,35.16-15.43-1.31-19.26-17.32-18.73-34.71"/>
  <path class="cls-3" d="m125.61,74.36c-27.28-12.84-53.89-19.65-60.94-8.45-7.62,12.11,18.36,37.83,12.56,52.03-5.42,13.28-36.03,1.88-38.02,16.75-1.59,11.9,22.23,21.26,21.59,29.96-.64,8.7-19.28,5.15-20.64,16.42-.91,7.57,16.13,10.32,15.48,19.34-.64,9.02-12.24,7.36-12.24,16.11,0,7.12,20.79,7.73,21.38,22.54"/>
  <path class="cls-3" d="m231.6,92.74c8.05,5.32,19.46-1,13.05-16.97C223.17,22.29,169.39-5.01,152.83,4.3c-17.38,9.77,4.3,56.24-6.6,67.01-6.09,6.02-14.09,5.76-21.42,2.68"/>
  <path class="cls-3" d="m231.91,92.98c-28.95-17.16-80.14-18.07-125.55,15.89"/>
  <path class="cls-7" d="m266.79,223.7c10,.37,25.09,5.51,24.62,15.83-.47,10.33-16.72,13.7-30.31,9.8-13.59-3.9-12.55-13.79-10.41-17.14,2.14-3.35,6.82-8.83,16.11-8.49h-.01Z"/>
  <path class="cls-9" d="m270.55,228.49c6.44.83,11.23,4.18,11.23,4.18,0,0-.94,6.99-12.17,6.77-11.23-.22-8.15-10.68-8.15-10.68,0,0,2.96-1.06,9.08-.28h.01Z"/>
  <path class="cls-5" d="m289.61,188.64l30.04-20.48"/>
  <path class="cls-5" d="m319.65,188.64l-30.04-20.48"/>
  <path class="cls-5" d="m245.33,188.64l30.04-20.48"/>
  <path class="cls-5" d="m275.37,188.64l-30.04-20.48"/>
  <path class="cls-10" d="m384.93,239.64c33.98,0,61.52-27.54,61.52-61.52s-27.54-61.52-61.52-61.52-61.52,27.54-61.52,61.52,27.54,61.52,61.52,61.52Z"/>
  <path class="cls-12" d="m456.76,191.56c.88-4.62,1.29-9.34,1.24-14.04-.05-4.61-.55-9.24-1.49-13.77-.93-4.48-2.3-8.89-4.07-13.11s-3.95-8.3-6.48-12.1c-2.56-3.85-5.51-7.46-8.75-10.73-3.31-3.34-6.97-6.35-10.87-8.97-4-2.68-8.3-4.98-12.79-6.82-4.49-1.84-9.16-3.23-13.9-4.13-4.62-.88-9.34-1.29-14.04-1.24-4.61.05-9.24.55-13.77,1.49-4.48.93-8.89,2.3-13.11,4.07-4.22,1.77-8.3,3.95-12.1,6.48-3.85,2.56-7.46,5.51-10.73,8.75-3.34,3.31-6.35,6.97-8.97,10.87-2.68,4-4.98,8.3-6.82,12.79-1.84,4.49-3.23,9.16-4.13,13.9-.88,4.62-1.29,9.34-1.24,14.04.05,4.61.55,9.24,1.49,13.77.93,4.48,2.3,8.89,4.07,13.11,1.77,4.22,3.95,8.3,6.48,12.1,2.56,3.85,5.51,7.46,8.75,10.73,3.31,3.34,6.97,6.35,10.87,8.97,2.19,1.47,4.47,2.82,6.82,4.05l-7.6,18.54-.92-.38c-3.2-1.31-6.88.23-8.19,3.43l-27.68,67.51c-1.31,3.2.23,6.88,3.43,8.19l14.01,5.75c3.2,1.31,6.88-.23,8.19-3.43l27.68-67.51c1.31-3.2-.23-6.88-3.43-8.19l-.92-.38,7.6-18.54c2.54.78,5.11,1.42,7.7,1.91,4.62.88,9.34,1.29,14.04,1.24,4.61-.05,9.24-.55,13.77-1.49,4.48-.93,8.89-2.3,13.11-4.07,4.22-1.77,8.3-3.95,12.1-6.48,3.85-2.56,7.46-5.51,10.73-8.75,3.34-3.31,6.35-6.97,8.97-10.87,2.68-4,4.98-8.3,6.82-12.79,1.84-4.49,3.23-9.16,4.13-13.9Zm-92.91,41.62c-30.32-12.43-44.82-47.1-32.39-77.42s47.1-44.82,77.42-32.39c30.32,12.43,44.82,47.1,32.39,77.42-12.43,30.32-47.1,44.82-77.42,32.39Z"/>
  <path class="cls-11" d="m357.04,216.92c2.32,1.61,4.74,2.97,7.22,4.11-15.93-15.81-18.73-41.22-5.5-60.3,13.23-19.08,38.02-25.36,58.4-15.98-1.94-1.92-4.06-3.71-6.38-5.32-21.4-14.84-50.78-9.53-65.62,11.87-14.84,21.4-9.53,50.78,11.87,65.62h0Z"/>
  <path class="cls-6" d="m351.05,320.13c11.7-6.66,14.46-20.1,11.53-28.76-2.42-7.14-12.93-10.06-19.11-1.37-6.87,9.65,4.36,19.91,4.36,19.91"/>
  <path class="cls-4" d="m351.05,320.13c11.7-6.66,14.46-20.1,11.53-28.76-2.42-7.14-12.93-10.06-19.11-1.37-6.87,9.65,4.36,19.91,4.36,19.91"/>
</svg>