<svg width="1024" height="1024" viewBox="0 0 1024 1024" fill="none" xmlns="http://www.w3.org/2000/svg">
  <path
    d="M227.047 986.667C213.347 986.667 201.581 984.33 191.75 979.656C182.08 974.982 173.296 967.971 165.398 958.624L187.157 936.866C192.153 943.474 197.955 948.63 204.563 952.338C211.171 955.883 219.229 957.656 228.739 957.656C237.281 957.656 244.05 955.964 249.047 952.58C254.203 949.195 256.782 944.52 256.782 938.558C256.782 933.399 255.332 929.209 252.431 925.987C249.529 922.762 245.661 920.024 240.826 917.767C236.152 915.511 230.915 913.496 225.112 911.722C219.471 909.788 213.75 907.612 207.948 905.195C202.307 902.777 197.068 899.796 192.233 896.249C187.559 892.543 183.772 887.869 180.871 882.228C177.97 876.427 176.519 869.174 176.519 860.47C176.519 850.156 179.017 841.372 184.014 834.119C189.01 826.866 195.86 821.306 204.563 817.438C213.266 813.569 223.098 811.635 234.057 811.635C245.661 811.635 256.137 813.811 265.486 818.162C274.834 822.514 282.489 828.156 288.452 835.086L266.694 856.844C261.699 851.364 256.541 847.335 251.223 844.756C246.065 842.177 240.182 840.888 233.574 840.888C225.999 840.888 220.035 842.338 215.684 845.24C211.332 848.141 209.156 852.332 209.156 857.811C209.156 862.485 210.607 866.272 213.508 869.174C216.409 872.075 220.197 874.572 224.871 876.667C229.705 878.762 234.944 880.778 240.584 882.712C246.387 884.646 252.108 886.822 257.75 889.24C263.552 891.657 268.789 894.799 273.463 898.667C278.299 902.536 282.166 907.532 285.068 913.656C287.97 919.62 289.42 927.033 289.42 935.898C289.42 951.693 283.86 964.103 272.739 973.129C261.618 982.154 246.387 986.667 227.047 986.667ZM329.149 984.25V818.888H360.82V984.25H329.149ZM301.831 895.283V867.482H388.137V895.283H301.831ZM455.75 986.667C445.436 986.667 436.249 984.492 428.189 980.14C420.292 975.788 414.087 969.745 409.574 962.008C405.062 954.272 402.805 945.327 402.805 935.174V867.482H434.716V934.448C434.716 939.283 435.523 943.474 437.134 947.019C438.747 950.404 441.163 952.982 444.387 954.756C447.612 956.529 451.399 957.414 455.75 957.414C462.358 957.414 467.515 955.4 471.223 951.37C474.929 947.341 476.783 941.701 476.783 934.448V867.482H508.454V935.174C508.454 945.488 506.197 954.514 501.684 962.25C497.333 969.987 491.128 976.03 483.068 980.382C475.171 984.572 466.065 986.667 455.75 986.667ZM582.991 986.667C572.193 986.667 562.523 984.008 553.981 978.69C545.438 973.371 538.67 966.117 533.673 956.932C528.838 947.745 526.42 937.43 526.42 925.987C526.42 914.382 528.838 903.987 533.673 894.799C538.67 885.612 545.359 878.361 553.739 873.041C562.281 867.724 572.031 865.064 582.991 865.064C591.372 865.064 598.867 866.756 605.475 870.14C612.244 873.525 617.643 878.28 621.672 884.404C625.864 890.367 628.119 897.137 628.441 904.712V946.293C628.119 953.869 625.943 960.719 621.914 966.843C617.885 972.967 612.486 977.803 605.717 981.348C598.948 984.895 591.372 986.667 582.991 986.667ZM588.31 957.414C594.273 957.414 599.431 956.125 603.783 953.546C608.296 950.806 611.76 947.1 614.178 942.425C616.757 937.59 618.046 932.03 618.046 925.745C618.046 919.62 616.757 914.22 614.178 909.546C611.76 904.712 608.296 901.004 603.783 898.425C599.431 895.686 594.354 894.316 588.552 894.316C582.588 894.316 577.351 895.686 572.838 898.425C568.486 901.166 565.02 904.872 562.443 909.546C560.025 914.22 558.815 919.62 558.815 925.745C558.815 932.03 560.025 937.59 562.443 942.425C565.02 947.1 568.567 950.806 573.08 953.546C577.593 956.125 582.669 957.414 588.31 957.414ZM647.782 984.25H616.354V952.821L621.431 924.295L616.112 896.249V809.459H647.782V984.25ZM675.799 984.25V867.482H707.712V984.25H675.799ZM691.756 848.624C686.598 848.624 682.327 846.932 678.943 843.548C675.557 840.001 673.865 835.649 673.865 830.493C673.865 825.496 675.557 821.225 678.943 817.68C682.327 814.133 686.598 812.361 691.756 812.361C697.074 812.361 701.344 814.133 704.569 817.68C707.953 821.225 709.646 825.496 709.646 830.493C709.646 835.649 707.953 840.001 704.569 843.548C701.344 846.932 697.074 848.624 691.756 848.624ZM790.646 986.667C778.879 986.667 768.242 984.008 758.734 978.69C749.386 973.209 741.891 965.875 736.25 956.69C730.77 947.341 728.031 936.946 728.031 925.503C728.031 914.059 730.77 903.825 736.25 894.799C741.729 885.612 749.225 878.361 758.734 873.041C768.242 867.562 778.799 864.822 790.404 864.822C802.329 864.822 812.968 867.562 822.315 873.041C831.825 878.361 839.318 885.612 844.799 894.799C850.278 903.825 853.018 914.059 853.018 925.503C853.018 936.946 850.278 947.341 844.799 956.69C839.318 965.875 831.825 973.209 822.315 978.69C812.968 984.008 802.41 986.667 790.646 986.667ZM790.404 957.172C796.367 957.172 801.605 955.883 806.118 953.304C810.792 950.564 814.338 946.858 816.755 942.183C819.334 937.349 820.623 931.869 820.623 925.745C820.623 919.62 819.334 914.22 816.755 909.546C814.176 904.872 810.631 901.246 806.118 898.667C801.605 895.928 796.367 894.558 790.404 894.558C784.602 894.558 779.444 895.928 774.931 898.667C770.418 901.246 766.873 904.872 764.294 909.546C761.715 914.22 760.426 919.62 760.426 925.745C760.426 931.869 761.715 937.349 764.294 942.183C766.873 946.858 770.418 950.564 774.931 953.304C779.444 955.883 784.602 957.172 790.404 957.172Z"
    fill="white" />
  <path
    d="M878.556 712.472C880.954 723.823 872.295 734.504 860.692 734.504H164.28C150.908 734.504 142.072 720.602 147.749 708.495L375.031 223.738C379.917 213.318 393.106 209.962 402.378 216.777L518.717 302.297C527.21 308.541 539.211 306.315 544.901 297.443L705.899 46.4115C714.713 32.6674 735.758 36.5193 739.133 52.4945L878.556 712.472ZM609.106 619.823H610.681C629.168 619.823 646.994 612.713 660.3 599.864C667.158 593.668 672.591 586.1 676.249 577.619C679.905 569.136 681.784 559.995 681.632 550.802C681.936 541.914 680.261 533.077 676.705 524.9C673.149 516.774 667.818 509.51 661.062 503.67C649.736 492.294 634.449 485.742 618.4 485.284H617.181C615.099 485.284 612.966 485.538 610.985 486.148L650.448 427.486L619.01 405.547L604.129 427.486L566.087 485.59C559.536 495.239 554.102 503.72 550.698 509.612C547.194 515.859 544.147 522.359 541.659 529.065C538.814 536.175 537.341 543.793 537.341 551.462C537.24 560.553 539.068 569.593 542.726 577.973C546.332 586.354 551.715 593.82 558.419 600.016C571.572 612.815 589.247 619.976 607.581 619.976L609.054 619.874L609.106 619.823ZM441.961 556.693L485.537 618.3H532.11L480.864 546.789L526.37 483.609L496.153 462.684L482.795 480.307L441.859 538.002V421.951L401.076 388.686V618.249H441.859V556.591H441.909L441.961 556.693ZM609.156 581.427C601.183 581.427 593.565 578.279 587.926 572.64C582.289 567.003 579.141 559.385 579.141 551.412C579.141 543.437 582.289 535.819 587.926 530.182C593.565 524.544 601.183 521.395 609.156 521.395H609.41C613.372 521.395 617.283 522.209 620.889 523.732C624.545 525.307 627.795 527.54 630.538 530.436C633.434 533.077 635.719 536.275 637.242 539.882C638.817 543.488 639.578 547.348 639.578 551.258C639.478 559.283 636.226 566.901 630.538 572.54C624.849 578.177 617.181 581.325 609.156 581.377V581.427Z"
    fill="#FF671D" />
  <path
    d="M609.158 581.381C601.185 581.381 593.567 578.231 587.929 572.594C582.292 566.956 579.143 559.338 579.143 551.365C579.143 543.391 582.292 535.772 587.929 530.135C593.567 524.498 601.185 521.35 609.158 521.35H609.412C613.374 521.35 617.285 522.161 620.891 523.685C624.547 525.26 627.799 527.494 630.54 530.389C633.436 533.031 635.721 536.229 637.244 539.835C638.819 543.441 639.581 547.301 639.581 551.213C639.479 559.238 636.229 566.854 630.54 572.493C624.853 578.131 617.183 581.279 609.158 581.33V581.381Z"
    fill="#FF671D" />
</svg>