<svg width="354" height="417" viewBox="0 0 354 417" fill="none" xmlns="http://www.w3.org/2000/svg">
<path d="M208.345 416.999C93.211 416.896 -0.103081 323.479 8.5462e-05 208.345C0.103252 93.211 93.5205 -0.103081 208.654 8.5462e-05C323.788 0.103252 417.102 93.5205 416.999 208.654C416.999 230.732 413.44 252.655 406.579 273.598C404.774 279.014 398.945 281.954 393.529 280.2C388.113 278.447 385.172 272.566 386.926 267.15C419.475 168.471 365.829 62.1063 267.15 29.5573C168.471 -2.99174 62.1579 50.6549 29.6605 149.334C-2.83699 248.012 50.7064 354.377 149.385 386.926C217.166 409.262 291.703 391.362 341.946 340.656C346.124 336.787 352.675 337.097 356.544 341.275C360.154 345.195 360.154 351.179 356.595 355.151C317.495 394.87 264.055 417.154 208.345 416.999Z" fill="#E4F1FE"/>
<path d="M208.345 416.999C93.211 416.896 -0.103081 323.479 8.5462e-05 208.345C0.103252 93.211 93.5205 -0.103081 208.654 8.5462e-05C323.788 0.103252 417.102 93.5205 416.999 208.654C416.999 230.732 413.44 252.655 406.579 273.598C404.774 279.014 398.945 281.954 393.529 280.2C388.113 278.447 385.172 272.566 386.926 267.15C419.475 168.471 365.829 62.1063 267.15 29.5573C168.471 -2.99174 62.1579 50.6549 29.6605 149.334C-2.83699 248.012 50.7064 354.377 149.385 386.926C217.166 409.262 291.703 391.362 341.946 340.656C346.124 336.787 352.675 337.097 356.544 341.275C360.154 345.195 360.154 351.179 356.595 355.151C317.495 394.87 264.055 417.154 208.345 416.999Z" fill="#DAEAFB"/>
<path d="M208.346 43.0186C117.198 43.1733 43.3825 117.195 43.5373 208.343C43.692 299.491 117.714 373.306 208.862 373.151C299.803 372.997 373.515 299.284 373.67 208.343C373.567 117.092 299.597 43.1217 208.346 43.0186ZM211.183 347.927C210.667 349.217 210.461 350.661 210.615 352.054H208.81C130.146 351.951 66.4403 288.194 66.3887 209.529C65.6665 173.06 79.1813 137.777 104.096 111.16C104.973 111.882 105.953 112.45 107.036 112.914C108.016 118.021 108.223 123.231 107.604 128.389V128.647C107.604 128.647 113.484 143.4 108.223 155.161C102.961 166.922 103.477 188.174 106.417 192.868C109.358 197.562 122.924 214.688 124.678 216.442C127.721 221.548 129.888 227.119 131.177 232.948C131.745 234.702 140.617 245.896 150.005 245.277C155.628 245.741 161.096 247.495 165.944 250.435C167.337 251.363 168.988 251.982 170.638 252.189C171.257 252.189 171.825 253.375 172.392 253.994C174.301 257.657 177.138 260.7 180.646 262.815C181.832 263.382 183.586 264.569 184.772 265.188C189.105 267.509 193.232 270.14 197.152 273.08C197.152 273.647 195.966 274.834 195.398 275.453C192.458 278.96 187.145 284.841 188.899 292.527C190.55 303.153 206.025 316.152 211.183 319.505C214.226 322.032 213.04 343.801 211.183 347.927ZM330.289 154.129C334.106 156.037 336.582 159.855 336.737 164.136C336.737 165.322 344.99 170.636 344.99 170.636C344.99 170.636 341.482 177.702 339.832 177.702C338.181 177.702 336.84 184.769 336.84 187.142C337.975 191.269 340.451 194.931 343.907 197.459C346.898 199.832 350.406 195.705 352.16 193.951C352.676 198.078 352.882 202.205 352.779 206.331C349.013 207.105 345.454 208.498 342.153 210.458C339.832 212.779 334.518 229.286 332.146 231.091C329.773 232.897 324.976 256.057 324.666 258.43C324.357 260.803 330.547 277.258 334.673 279.631C314.968 314.759 281.181 339.829 241.823 348.546C242.442 347.36 243.01 346.741 243.629 346.741C244.248 346.741 245.383 345.606 245.95 344.987C248.22 344.11 250.283 342.717 251.882 340.86C254.358 337.507 257.35 334.516 260.703 332.04C268.44 326.314 275.559 319.814 281.904 312.593C284.122 307.176 286.856 301.967 290.157 297.118C293.665 294.177 290.724 288.297 288.97 286.801V286.182C287.784 283.861 277.777 282.674 276.023 283.242C272.154 282.004 268.544 279.992 265.397 277.361C265.397 274.421 257.144 266.735 255.39 266.735C252.243 266.426 249.303 264.981 247.136 262.66C244.196 258.533 232.435 256.161 229.495 256.161C225.833 256.212 222.17 255.387 218.869 253.788C214.329 253.272 209.79 254.304 205.921 256.728C204.735 257.347 204.168 257.347 203.549 257.914C198.958 257.657 194.418 256.883 190.034 255.542C189.208 253.685 188.796 251.673 188.847 249.661C188.744 248.062 188.538 246.515 188.228 244.967C187.661 243.781 185.288 243.213 181.161 242.027C179.975 242.027 178.84 241.408 177.654 241.408C177.86 240.376 178.273 239.396 178.84 238.468C180.233 236.146 180.749 233.412 180.233 230.73C179.614 230.111 179.614 229.544 178.479 229.544C176.106 228.976 173.321 231.297 170.226 233.67C169.039 234.754 167.647 235.579 166.099 236.043C162.54 235.269 159.135 233.877 156.092 231.916C151.346 228.357 154.287 220.104 155.473 215.977C155.989 214.636 156.401 213.243 156.659 211.851C156.659 210.716 161.353 209.529 168.42 209.529C170.226 209.529 173.166 208.91 175.487 208.91C177.447 208.498 179.408 208.291 181.419 208.343C182.606 208.343 184.36 210.716 185.546 212.47C186.732 214.223 189.054 217.164 190.704 216.596C193.696 215.977 193.077 212.47 193.077 210.097V207.724C194.16 203.958 196.482 200.709 199.577 198.336C203.084 195.963 207.83 189.515 206.644 186.523C206.644 185.388 212.524 181.365 214.897 179.456C215.774 179.044 216.548 178.425 217.218 177.702C217.837 177.135 218.405 177.135 219.591 176.516C221.964 175.33 224.285 174.195 224.285 170.636C224.285 168.263 230.785 167.695 234.911 167.128C236.098 167.128 236.665 167.128 237.284 166.509C239.605 165.941 241.359 165.322 241.978 164.136C242.339 162.537 242.133 160.886 241.359 159.442C241.359 158.875 240.792 158.256 240.792 157.688C239.399 154.903 240.431 151.498 243.165 150.002C244.351 148.867 247.291 148.867 249.612 148.248C252.45 148.042 255.183 147.423 257.866 146.495C259.362 145.979 260.651 144.947 261.425 143.554C261.992 141.801 260.806 140.614 259.62 138.809C259.052 138.241 259.052 137.674 258.485 137.055C257.144 134.373 255.029 132.103 252.45 130.607C251.315 129.988 250.696 125.861 250.128 123.54C249.509 122.354 249.509 121.167 248.942 119.981C248.374 118.794 247.807 118.33 247.291 118.33C244.66 118.072 242.03 118.485 239.605 119.517C239.657 118.846 239.451 118.227 239.038 117.711C239.089 116.422 238.677 115.184 237.851 114.203C237.284 113.584 236.098 112.45 234.911 111.263C232.642 109.406 230.475 107.446 228.412 105.383C227.638 104.557 226.555 104.145 225.471 104.196C223.099 104.764 220.777 107.704 219.024 110.644C219.024 111.263 218.405 111.263 218.405 111.831C215.464 116.576 214.897 120.084 217.218 121.838C217.218 121.838 217.837 122.457 217.218 124.211C216.599 125.964 214.897 128.337 213.71 128.337C210.77 128.337 210.151 131.845 209.584 135.404C209.532 136.849 209.12 138.293 208.397 139.531C207.83 138.912 207.211 136.591 207.211 130.091V129.524C207.211 128.905 207.211 127.718 206.644 127.718C205.715 127.254 204.735 127.048 203.703 127.151C202.517 127.151 201.898 127.151 201.33 126.583C197.617 123.746 193.438 121.528 188.951 120.084V111.16C193.954 107.24 199.267 103.68 204.838 100.534C210.203 98.0063 215.413 95.0661 220.313 91.7132C221.603 90.991 222.325 89.5982 222.119 88.1539C221.5 85.2137 216.186 82.9956 213.865 82.2734C212.111 78.1468 209.12 78.1468 205.612 78.1468C203.652 78.1983 201.64 78.0436 199.731 77.5793C192.355 76.0834 184.824 75.7224 177.344 76.3929C172.805 76.5993 168.214 76.1866 163.778 75.2065C162.591 75.2065 161.405 74.6391 160.27 74.6391C176.055 68.6554 192.819 65.6636 209.739 65.7668C228.876 65.8699 247.807 69.6871 265.5 77.0635C266.068 78.2499 266.067 79.4363 266.635 80.6228C269.42 85.9358 271.174 91.7132 271.793 97.6968C272.103 102.03 272.103 106.311 271.793 110.644C271.226 112.45 282.419 125.397 285.36 125.397C288.3 125.397 289.486 124.211 291.24 121.838C293.561 118.485 296.398 115.596 299.648 113.172C304.033 111.057 308.985 110.438 313.782 111.418C318.631 116.628 323.119 122.147 327.348 127.873L326.162 129.059C323.789 131.432 318.476 136.745 319.095 141.439C320.746 147.114 324.821 151.808 330.289 154.129Z" fill="url(#paint0_linear)" fill-opacity="0.6"/>
<defs>
<linearGradient id="paint0_linear" x1="43.0184" y1="208.085" x2="373.667" y2="208.085" gradientUnits="userSpaceOnUse">
<stop stop-color="#D7E8FA"/>
<stop offset="1" stop-color="#C4D9F5"/>
</linearGradient>
</defs>
</svg>
