<?xml version="1.0" encoding="utf-8"?>
<!-- Generator: Adobe Illustrator 19.1.0, SVG Export Plug-In . SVG Version: 6.00 Build 0)  -->
<svg version="1.0" id="Layer_1" xmlns="http://www.w3.org/2000/svg" xmlns:xlink="http://www.w3.org/1999/xlink" x="0px" y="0px"
	 width="100px" height="100px" viewBox="0 0 100 100" style="enable-background:new 0 0 100 100;" xml:space="preserve">
<style type="text/css">
	.st0{fill:none;}
	.st1{fill:#666766;}
	.st2{fill:url(#SVGID_1_);}
	.st3{fill:#3BB0C9;}
</style>
<path class="st0" d="M59.1,45.3c0,0,0-5.9,2.9-5.9c2.9,0,5.9-5.9,11.8,0c0,0,3.4-2.3,8.2-2.8c-1.5-3.5-3.6-6.8-6.1-9.6
	c-0.5,0.4-1.2,0.7-2.1,0.7c-2.9,0,2.9,5.9,0,5.9c-2.9,0-2.9-2.9-5.9-2.9c-2.9,0-2.9,2.9-5.9,5.9c-2.9,2.9,0,0-2.9-2.9
	c-2.9-2.9,5.9,0,2.9-2.9c-2.9-2.9,2.9-2.9,2.9-5.9c0-2.3,3.6-2.8,5.2-2.9c-1.7-1.2-3.5-2.3-5.2-3c2.9,2.9-2.9,5.9-5.9,5.9
	c-2.8,0-0.3-5.2,0-8.3c-3-0.8-6.2-1.3-9.5-1.3c-1.8,0-3.5,0.1-5.3,0.4c-0.4,0.8-0.6,1.7-0.6,2.6c0,2.9-2.9-2.9-5.9,2.9
	c-2.9,5.9,0,0,0,5.9c0,2.9-4.3,0.8-2.9,1.5c2.9,1.5,2.9,1.5,0,4.4c0,0-5.9-2.9-5.9,0c0,2.9-2.9,2.9-5.9,2.9c-2.9,0,0,5.9-2.9,5.9
	c-2.3,0-1-3.5-3-5.1c-0.8,1.8-1.4,3.6-1.8,5.5c2,1.8,2.3,8.8,4.9,11.4c2.9-2.9,2.9,0,5.9,0c2.9,0,2.9,0,4.4,2.9
	c2.9,0,4.4,2.9,7.4,5.9c2.9,2.9,8.8,2.9,8.8,5.9c0,2.9-2.9,0-2.9,5.9c0,2.9,0,2.9-2.9,2.9c-1.9,0-3.7,3.5-4.8,6.1
	c4.2,1.8,8.8,2.7,13.7,2.7c9.9,0,18.8-4.1,25.3-10.6l-1.7-3.4c0,0,3.7-5.9,0.7-8.8c-2.9-2.9-2.9-5.9-2.9-5.9S65,63,62,60.1
	c-2.9-2.9-2.9,0-5.9-5.9C53.2,48.3,59.1,45.3,59.1,45.3z"/>
<path class="st0" d="M18.6,61.5c0-2.4-0.9-4.3,0.2-6.4c-4.2-4.2-1.7-1.9-1.7-4.6c0-1.4-1.3-2.8-2.7-3.9c-0.1,1.3-0.2,2.6-0.2,3.9
	c0,10.4,4.5,19.7,11.6,26.2L23,71.1C20,71.1,18.6,64.5,18.6,61.5z"/>
<path class="st1" d="M49.5,11.7c-15.2,0-28.3,8.8-34.7,21.5c-1.7,3.4-2.9,7-3.5,10.8c-0.4,2.1-0.5,4.3-0.5,6.5
	c0,21.4,17.4,38.8,38.8,38.8c21.4,0,38.8-17.4,38.8-38.8C88.3,29.1,70.9,11.7,49.5,11.7z M14.1,50.5c0-1.3,0.1-2.6,0.2-3.9
	c1.4,1.1,2.7,2.5,2.7,3.9c0,2.7-2.5,0.4,1.7,4.6c-1.1,2.2-0.2,4.1-0.2,6.4c0,2.9,1.5,9.6,4.4,9.6l2.8,5.6
	C18.6,70.2,14.1,60.9,14.1,50.5z M56.1,54.2c2.9,5.9,2.9,2.9,5.9,5.9c2.9,2.9,8.8-2.9,8.8-2.9s0,2.9,2.9,5.9
	c2.9,2.9-0.7,8.8-0.7,8.8l1.7,3.4c-6.4,6.5-15.4,10.6-25.3,10.6c-4.8,0-9.5-1-13.7-2.7c1.1-2.6,3-6.1,4.8-6.1c2.9,0,2.9,0,2.9-2.9
	c0-5.9,2.9-2.9,2.9-5.9c0-2.9-5.9-2.9-8.8-5.9c-2.9-2.9-4.4-5.9-7.4-5.9c-1.5-2.9-1.5-2.9-4.4-2.9c-2.9,0-2.9-2.9-5.9,0
	c-2.6-2.6-2.9-9.6-4.9-11.4c0.5-1.9,1.1-3.7,1.8-5.5c2,1.6,0.8,5.1,3,5.1c2.9,0,0-5.9,2.9-5.9c2.9,0,5.9,0,5.9-2.9
	c0-2.9,5.9,0,5.9,0c2.9-2.9,2.9-2.9,0-4.4c-1.3-0.7,2.9,1.5,2.9-1.5c0-5.9-2.9,0,0-5.9c2.9-5.9,5.9,0,5.9-2.9c0-0.9,0.3-1.8,0.6-2.6
	c1.7-0.3,3.5-0.4,5.3-0.4c3.3,0,6.5,0.5,9.5,1.3c-0.3,3.1-2.7,8.3,0,8.3c2.9,0,8.8-2.9,5.9-5.9c1.7,0.7,3.5,1.7,5.2,3
	c-1.6,0.1-5.2,0.6-5.2,2.9c0,2.9-5.9,2.9-2.9,5.9c2.9,2.9-5.9,0-2.9,2.9c2.9,2.9,0,5.9,2.9,2.9c2.9-2.9,2.9-5.9,5.9-5.9
	c2.9,0,2.9,2.9,5.9,2.9c2.9,0-2.9-5.9,0-5.9c0.9,0,1.6-0.3,2.1-0.7c2.5,2.8,4.6,6.1,6.1,9.6c-4.8,0.6-8.2,2.8-8.2,2.8
	c-5.9-5.9-8.8,0-11.8,0c-2.9,0-2.9,5.9-2.9,5.9S53.2,48.3,56.1,54.2z"/>
<path class="st0" d="M28.4,12.5c3.1,0,5.6-2.5,5.6-5.6c0-3.1-2.5-5.6-5.6-5.6s-5.6,2.5-5.6,5.6C22.8,10,25.3,12.5,28.4,12.5z"/>
<linearGradient id="SVGID_1_" gradientUnits="userSpaceOnUse" x1="2.6005" y1="65.4752" x2="94.3777" y2="30.2452">
	<stop  offset="0" style="stop-color:#3BB0C9"/>
	<stop  offset="0" style="stop-color:#3CAFC7"/>
	<stop  offset="0.2241" style="stop-color:#3FAEC5"/>
	<stop  offset="0.3326" style="stop-color:#47ABC2"/>
	<stop  offset="0.4163" style="stop-color:#53A8BD"/>
	<stop  offset="0.4872" style="stop-color:#5FA3B5"/>
	<stop  offset="0.5501" style="stop-color:#689BAA"/>
	<stop  offset="0.6073" style="stop-color:#6D8F9B"/>
	<stop  offset="0.6602" style="stop-color:#6C8087"/>
	<stop  offset="0.7083" style="stop-color:#646C70"/>
	<stop  offset="0.7417" style="stop-color:#58595B"/>
</linearGradient>
<path class="st2" d="M49.5,1.3c-0.3,0-0.5,0.2-0.5,0.5s0.2,0.5,0.5,0.5c26.6,0,48.2,21.6,48.2,48.2S76.1,98.7,49.5,98.7
	S1.3,77.1,1.3,50.5c0-16.2,8.1-31.2,21.6-40.2c1.2,1.9,3.2,3.1,5.6,3.1c3.6,0,6.5-2.9,6.5-6.5c0-3.6-2.9-6.5-6.5-6.5
	s-6.5,2.9-6.5,6.5c0,0.9,0.2,1.8,0.5,2.6C8.6,18.6,0.3,33.9,0.3,50.5c0,27.1,22,49.2,49.2,49.2s49.2-22,49.2-49.2S76.6,1.3,49.5,1.3
	z M28.4,1.3c3.1,0,5.6,2.5,5.6,5.6c0,3.1-2.5,5.6-5.6,5.6s-5.6-2.5-5.6-5.6C22.8,3.8,25.3,1.3,28.4,1.3z"/>
<circle class="st3" cx="28.4" cy="6.9" r="4.2"/>
</svg>
