<svg width="61" height="72" viewBox="0 0 61 72" fill="none" xmlns="http://www.w3.org/2000/svg">
<path fill-rule="evenodd" clip-rule="evenodd" d="M33.3487 53.738C34.4503 52.6364 34.4503 50.8466 33.3487 49.745L17.3664 33.7522C9.6534 26.039 9.6534 13.4936 17.3664 5.78267C21.2166 1.9304 26.2897 0 31.3522 0C36.4126 0 41.4858 1.9304 45.3381 5.78267L52.0455 12.49L52.1434 12.5881C52.5909 13.0696 52.8743 13.7131 52.8743 14.4226C52.8743 15.9056 51.6748 17.1051 50.1918 17.1051C49.4823 17.1051 48.8387 16.8217 48.3594 16.3743L48.304 16.321L41.5519 9.56676C38.8352 6.85015 35.2131 5.35654 31.3629 5.35654C27.5107 5.35654 23.8906 6.85015 21.174 9.56676C15.5554 15.1853 15.5554 24.3387 21.174 29.9573L37.1563 45.9375C38.7053 47.4865 39.5554 49.5384 39.5554 51.7308C39.5554 53.9233 38.7053 55.9751 37.1563 57.5242C35.6072 59.0732 33.5554 59.9233 31.3629 59.9233C31.0028 59.9233 30.6449 59.8999 30.2933 59.8551C29.5348 59.7571 28.8019 59.5569 28.1115 59.2585C27.1761 58.8537 26.3154 58.2699 25.5696 57.5242L15.2827 47.2245C14.9418 46.9155 14.6691 46.517 14.5157 46.0611C14.4261 45.7969 14.3771 45.5135 14.3771 45.2173C14.3771 44.6868 14.5305 44.1903 14.7969 43.7749C14.8949 43.6214 15.01 43.4765 15.1378 43.3444C15.6257 42.8437 16.3054 42.5348 17.0617 42.5348C17.424 42.5348 17.7713 42.6094 18.0867 42.7436C18.466 42.9034 18.8004 43.1484 19.0689 43.451L29.3559 53.738C29.9013 54.294 30.6321 54.5667 31.3522 54.5667C32.0724 54.5667 32.7927 54.2834 33.3487 53.738ZM13.7763 39.2408C13.7763 40.7237 12.5767 41.9233 11.0938 41.9233C10.3118 41.9233 9.60867 41.5909 9.11861 41.0582C8.67755 40.5809 8.40909 39.9418 8.40909 39.2408C8.40909 37.7557 9.60867 36.5561 11.0938 36.5561C11.6029 36.5561 12.0781 36.6968 12.4851 36.9439C12.8494 37.1655 13.1563 37.4702 13.3799 37.8324C13.6314 38.2415 13.7763 38.723 13.7763 39.2408ZM56.1556 18.3729C55.9169 18.4985 55.6932 18.6605 55.4929 18.8608L48.7195 25.6364L45.3594 22.2763C44.2897 21.2067 42.566 21.2067 41.4965 22.2763C40.429 23.3459 40.429 25.0696 41.4965 26.1371L46.789 31.4296C47.3217 31.9623 48.0205 32.2245 48.7195 32.2245C49.1307 32.2245 49.544 32.1328 49.9233 31.9475C50.1853 31.8196 50.4304 31.6471 50.6499 31.4296L59.3559 22.7237C60.4254 21.6541 60.4254 19.9304 59.3559 18.8608C58.4865 17.9936 57.1868 17.8317 56.1556 18.3729ZM29.3537 17.7699C28.2522 18.8714 28.2522 20.6613 29.3537 21.7628L45.3359 37.7557C53.049 45.4688 53.049 58.0142 45.3359 65.7273C41.4858 69.5774 36.4126 71.5078 31.3501 71.5078C26.2897 71.5078 21.2273 69.5774 17.3664 65.7273L1.40554 49.7663L1.42685 49.745C0.860085 49.2422 0.5 48.5348 0.5 47.7273C0.5 46.9645 0.81534 46.2784 1.32457 45.7905C1.80611 45.326 2.46236 45.0427 3.18466 45.0427C4.00284 45.0427 4.73367 45.424 5.22372 46.0035L21.1506 61.9304C23.8672 64.6471 27.4893 66.1406 31.3395 66.1406C35.1918 66.1406 38.8117 64.6471 41.5284 61.9304C47.1471 56.3117 47.1471 47.1584 41.5284 41.5419L25.5483 25.5597C23.9972 24.0107 23.1471 21.9588 23.1471 19.7663C23.1471 17.5739 23.9972 15.522 25.5483 13.973C27.0973 12.424 29.1471 11.5739 31.3395 11.5739C33.532 11.5739 35.5839 12.424 37.1328 13.973L39.1079 15.9481C39.598 16.4403 39.9027 17.1158 39.9027 17.8572C39.9027 19.3402 38.7031 20.5419 37.2202 20.5419C36.4573 20.5419 35.7692 20.2138 35.2792 19.7003L33.3466 17.7699C32.8012 17.2138 32.0704 16.9411 31.3501 16.9411C30.6299 16.9411 29.8991 17.2245 29.3537 17.7699Z" fill="#FF671D"/>
</svg>
